<svg xmlns="http://www.w3.org/2000/svg" width="220.582" height="79.844" viewBox="0 0 220.582 79.844">
  <g id="logo_main" transform="translate(-399.97 -1517.677)">
    <g id="그룹_263" data-name="그룹 263" transform="translate(473.16 1517.678)">
      <path id="패스_276" data-name="패스 276" d="M509.218,1518.821h45.5v12.88H539.551c.61,8.916,7.317,12.651,15.929,13.26v13.186c-10.137-.229-18.292-3.659-23.55-10.136-5.182,6.478-13.413,9.908-23.474,10.136v-13.186c8.612-.609,15.244-4.344,15.853-13.26h-15.09Zm2.439,43.518h65.315v26.9H559.062v-14.709h-47.4Zm48.167-44.661h17.148v42.756H559.824Z" transform="translate(-508.456 -1517.678)" fill="#fff"/>
      <path id="패스_277" data-name="패스 277" d="M617.844,1518.821h42.528v8.384c0,24.617-21.035,32.39-42.908,32.39V1547.4c18.825,0,27.437-7.621,27.437-16.385H617.844Zm17.224,42.146h34.906c8.383,0,14.938,5.792,14.938,13.947,0,7.926-6.555,13.947-14.938,13.947H635.069c-8.231,0-14.786-6.021-14.786-13.947C620.283,1566.759,626.838,1560.967,635.069,1560.967Zm29.495,16.386c2.134,0,3.582-.609,3.582-2.439,0-2.058-1.448-2.515-3.582-2.515H640.4c-1.83,0-3.277.457-3.277,2.515,0,1.83,1.448,2.439,3.277,2.439Zm2.058-59.674h16.767v12.88h7.926V1543.9h-7.926v15.547H666.621Z" transform="translate(-543.922 -1517.678)" fill="#fff"/>
    </g>
    <g id="그룹_264" data-name="그룹 264" transform="translate(399.97 1517.677)">
      <path id="제외_1" data-name="제외 1" d="M-832.006-209.661v0l0-6.228h-6.6A11.405,11.405,0,0,1-850-227.283v-59.153a3.071,3.071,0,0,1,3.067-3.068h51.7a3.071,3.071,0,0,1,3.067,3.068v50.827a3.071,3.071,0,0,1-3.067,3.067h-43.379a5.264,5.264,0,0,0-5.258,5.259,5.263,5.263,0,0,0,5.258,5.257h6.6v-3.561h-4.3a1.755,1.755,0,0,1-1.753-1.753,1.755,1.755,0,0,1,1.753-1.752h32.424a1.755,1.755,0,0,1,1.753,1.752,1.755,1.755,0,0,1-1.753,1.753h-16.765v3.561H-796.1a3.072,3.072,0,0,1,3.068,3.068,3.071,3.071,0,0,1-3.068,3.067h-24.538v6.227l-5.681-3.481L-832-209.662Zm6.582-57.8a1.83,1.83,0,0,0-1.829,1.828v12.11a1.831,1.831,0,0,0,1.829,1.829,1.8,1.8,0,0,0,.91-.247l5.243-3.028,5.244-3.028a1.807,1.807,0,0,0,.913-1.582,1.806,1.806,0,0,0-.913-1.58l-5.244-3.029-5.243-3.027A1.8,1.8,0,0,0-825.424-267.462Z" transform="translate(850 289.505)" fill="#fff"/>
    </g>
  </g>
</svg>
