<svg xmlns="http://www.w3.org/2000/svg" xmlns:xlink="http://www.w3.org/1999/xlink" width="82.578" height="31.146" viewBox="0 0 82.578 31.146">
  <defs>
    <linearGradient id="linear-gradient" x1="0.5" y1="0.032" x2="0.5" y2="1.012" gradientUnits="objectBoundingBox">
      <stop offset="0" stop-color="#29dbdb"/>
      <stop offset="1" stop-color="#1ea9ea"/>
    </linearGradient>
    <linearGradient id="linear-gradient-2" x1="0.5" y1="0.033" x2="0.5" y2="1.018" xlink:href="#linear-gradient"/>
    <linearGradient id="linear-gradient-3" x1="0.006" y1="-0.355" x2="1.107" y2="1.374" xlink:href="#linear-gradient"/>
  </defs>
  <g id="logo_footer" transform="translate(-399.469 -1517.177)">
    <g id="그룹_289" data-name="그룹 289" transform="translate(427.203 1517.677)">
      <path id="패스_384" data-name="패스 384" d="M508.74,1518.1h16.93v4.793h-5.643c.227,3.318,2.722,4.707,5.927,4.934v4.906c-3.772-.085-6.806-1.361-8.763-3.772-1.928,2.41-4.991,3.687-8.734,3.772v-4.906c3.2-.227,5.672-1.616,5.9-4.934H508.74Zm.908,16.193h24.3v10.01h-6.664v-5.473H509.647Zm17.923-16.618h6.381v15.909H527.57Z" transform="translate(-508.456 -1517.678)" fill="url(#linear-gradient)"/>
      <path id="패스_385" data-name="패스 385" d="M617.606,1518.1H633.43v3.12c0,9.16-7.827,12.052-15.966,12.052v-4.537c7,0,10.209-2.836,10.209-6.1H617.606Zm6.409,15.682H637a5.2,5.2,0,1,1,0,10.379H624.015a5.2,5.2,0,1,1,0-10.379Zm10.975,6.1c.794,0,1.333-.227,1.333-.907,0-.766-.539-.936-1.333-.936H626c-.681,0-1.219.17-1.219.936,0,.681.539.907,1.219.907Zm.766-22.2h6.239v4.792h2.949v4.963h-2.949v5.785h-6.239Z" transform="translate(-590.099 -1517.678)" fill="url(#linear-gradient-2)"/>
    </g>
    <g id="그룹_290" data-name="그룹 290" transform="translate(399.97 1517.677)">
      <path id="제외_2" data-name="제외 2" d="M-912.306-9779.928v0l0-2.318h-2.457a4.244,4.244,0,0,1-4.239-4.239v-22.01a1.143,1.143,0,0,1,1.142-1.142h19.24a1.142,1.142,0,0,1,1.14,1.142v18.912a1.143,1.143,0,0,1-1.14,1.143h-16.143a1.958,1.958,0,0,0-1.957,1.955,1.959,1.959,0,0,0,1.957,1.957h2.457v-1.324h-1.6a.653.653,0,0,1-.652-.652.653.653,0,0,1,.652-.652h12.063a.653.653,0,0,1,.652.652.653.653,0,0,1-.652.652h-6.238v1.324h9.131a1.144,1.144,0,0,1,1.142,1.143,1.142,1.142,0,0,1-1.142,1.14h-9.131v2.317l-2.112-1.3-2.115,1.3Zm2.45-21.509a.681.681,0,0,0-.681.68v4.506a.681.681,0,0,0,.679.681.672.672,0,0,0,.34-.093l1.952-1.125,1.95-1.128a.671.671,0,0,0,.34-.586.675.675,0,0,0-.34-.591l-1.95-1.127-1.952-1.125A.672.672,0,0,0-909.856-9801.437Z" transform="translate(919 9809.639)" stroke="rgba(0,0,0,0)" stroke-miterlimit="10" stroke-width="1" fill="url(#linear-gradient-3)"/>
    </g>
  </g>
</svg>
