<svg id="logo_header" xmlns="http://www.w3.org/2000/svg" xmlns:xlink="http://www.w3.org/1999/xlink" width="96.043" height="45.913" viewBox="0 0 96.043 45.913">
  <defs>
    <linearGradient id="linear-gradient" x1="0.5" x2="0.5" y2="1" gradientUnits="objectBoundingBox">
      <stop offset="0" stop-color="#fff"/>
      <stop offset="1" stop-color="#80daec"/>
    </linearGradient>
    <linearGradient id="linear-gradient-4" x1="0.5" x2="0.5" y2="1" gradientUnits="objectBoundingBox">
      <stop offset="0" stop-color="#29dbdb"/>
      <stop offset="1" stop-color="#1ea9ea"/>
    </linearGradient>
  </defs>
  <path id="패스_258" data-name="패스 258" d="M35.912,42.124V55.411c0,2.859-2.243,3.887-5.1,3.887-2.841,0-4.821-1.027-4.821-3.887V52.888h4.018v1.869c0,.729.262,1.159.99,1.159s.99-.43.99-1.159V42.124Z" transform="translate(-13.813 -22.389)" fill="url(#linear-gradient)"/>
  <path id="패스_259" data-name="패스 259" d="M55.268,58.924H51.157v-16.8h4.111Z" transform="translate(-27.19 -22.389)" fill="url(#linear-gradient)"/>
  <path id="패스_260" data-name="패스 260" d="M74.684,42.124v16.8H70.76V51.038l-2.729,7.886H63.92l3.214-8.615-3.121-8.185h3.906l2.841,7.494V42.124Z" transform="translate(-33.973 -22.389)" fill="url(#linear-gradient)"/>
  <path id="패스_261" data-name="패스 261" d="M93.33,42.124v7.494l2.841-7.494h3.906l-3.121,8.185,3.214,8.615H96.059L93.33,51.038v7.886H89.406v-16.8Z" transform="translate(-47.519 -22.389)" fill="url(#linear-gradient-4)"/>
  <path id="패스_262" data-name="패스 262" d="M117.341,58.924h-3.925l2.336-16.8h6.728l2.336,16.8h-3.925l-.373-2.822H117.7Zm.785-6.186h1.962l-.972-7.681Z" transform="translate(-60.28 -22.389)" fill="url(#linear-gradient-4)"/>
  <path id="패스_263" data-name="패스 263" d="M150.743,58.924h-3.737L144,50.421v8.5h-3.738v-16.8H144l3.009,8.577V42.124h3.737Z" transform="translate(-74.547 -22.389)" fill="url(#linear-gradient-4)"/>
  <path id="패스_264" data-name="패스 264" d="M172.005,49.474h5.1v5.513c0,2.859-2.336,3.887-5.195,3.887s-5.289-1.027-5.289-3.887V45.213c0-2.859,2.336-3.887,5.2-3.887s5.2,1.028,5.2,3.887v1.925h-3.924V45.83a1.281,1.281,0,0,0-2.542,0v8.54c0,.729.635,1.121,1.364,1.121s1.364-.393,1.364-1.121V52.557h-1.271Z" transform="translate(-88.56 -21.965)" fill="url(#linear-gradient-4)"/>
  <path id="패스_265" data-name="패스 265" d="M92.295,3.748V42.165H3.748V3.748H92.295M96.043,0H0V45.913H96.043V0Z" fill="url(#linear-gradient-4)"/>
</svg>
