<svg xmlns="http://www.w3.org/2000/svg" xmlns:xlink="http://www.w3.org/1999/xlink" width="138" height="188.008" viewBox="0 0 138 188.008">
  <defs>
    <linearGradient id="linear-gradient" x1="0.5" y1="0.032" x2="0.5" y2="1.012" gradientUnits="objectBoundingBox">
      <stop offset="0" stop-color="#29dbdb"/>
      <stop offset="1" stop-color="#1ea9ea"/>
    </linearGradient>
    <linearGradient id="linear-gradient-2" x1="0.5" y1="0.033" x2="0.5" y2="1.018" xlink:href="#linear-gradient"/>
    <linearGradient id="linear-gradient-3" x1="0.006" y1="-0.355" x2="1.107" y2="1.374" xlink:href="#linear-gradient"/>
  </defs>
  <g id="logo_contents" transform="translate(-215.842 -2097.659)">
    <g id="그룹_266" data-name="그룹 266" transform="translate(215.842 2218.663)">
      <path id="패스_280" data-name="패스 280" d="M216.556,2235.84h42.6V2247.9h-14.2c.571,8.349,6.85,11.845,14.914,12.416v12.345c-9.491-.214-17.126-3.425-22.049-9.49-4.852,6.065-12.559,9.276-21.978,9.49v-12.345c8.064-.571,14.272-4.068,14.843-12.416H216.556Zm2.283,40.744h61.153v25.189h-16.77V2288H218.839Zm45.1-41.815h16.056V2274.8H263.937Z" transform="translate(-215.842 -2234.77)" fill="url(#linear-gradient)"/>
      <path id="패스_281" data-name="패스 281" d="M294.22,2235.84h39.817v7.849c0,23.048-19.693,30.326-40.173,30.326V2262.6c17.625,0,25.688-7.135,25.688-15.341H294.22Zm16.127,39.46h32.681c7.849,0,13.986,5.423,13.986,13.058,0,7.421-6.137,13.059-13.986,13.059H310.347c-7.707,0-13.844-5.638-13.844-13.059C296.5,2280.724,302.64,2275.3,310.347,2275.3Zm27.614,15.342c2,0,3.354-.571,3.354-2.284,0-1.926-1.355-2.354-3.354-2.354H315.342c-1.713,0-3.069.428-3.069,2.354,0,1.713,1.356,2.284,3.069,2.284Zm1.927-55.873h15.7v12.06h7.421v12.487h-7.421v14.557h-15.7Z" transform="translate(-225.008 -2234.77)" fill="url(#linear-gradient-2)"/>
    </g>
    <g id="그룹_267" data-name="그룹 267" transform="translate(248.212 2097.659)">
      <path id="패스_282" data-name="패스 282" d="M266.951,2169.811H321.9a3.886,3.886,0,0,0,3.885-3.885v-64.381a3.886,3.886,0,0,0-3.885-3.886h-65.49a3.886,3.886,0,0,0-3.885,3.886v74.925a14.446,14.446,0,0,0,14.43,14.43h8.363v7.89l7.2-4.412,7.2,4.412v-7.89h31.081a3.885,3.885,0,1,0,0-7.77H289.706v-4.512h21.235a2.22,2.22,0,1,0,0-4.44h-41.07a2.22,2.22,0,1,0,0,4.44h5.443v4.512h-8.363a6.66,6.66,0,1,1,0-13.32Z" transform="translate(-252.521 -2097.659)" fill="url(#linear-gradient-3)"/>
      <path id="패스_283" data-name="패스 283" d="M301.922,2137.279a2.313,2.313,0,0,1,0,4.006l-6.642,3.835-6.642,3.834a2.313,2.313,0,0,1-3.469-2v-15.339a2.313,2.313,0,0,1,3.469-2l6.642,3.835Z" transform="translate(-256.356 -2101.375)" fill="#fff"/>
    </g>
  </g>
</svg>
