<svg xmlns="http://www.w3.org/2000/svg" width="34.72" height="50.07" viewBox="0 0 34.72 50.07">
  <g id="그룹_255" data-name="그룹 255" transform="translate(-943 -899)">
    <path id="패스_266" data-name="패스 266" d="M-33.11.07a5.654,5.654,0,0,1-1.715-.259A3.689,3.689,0,0,1-36.106-.84l.448-.784a3.772,3.772,0,0,0,1.162.6A4.616,4.616,0,0,0-33.04-.8a2.78,2.78,0,0,0,1.491-.315A1,1,0,0,0-31.066-2a.8.8,0,0,0-.266-.637A1.767,1.767,0,0,0-32-2.989a9.585,9.585,0,0,0-1.078-.231,12.359,12.359,0,0,1-1.442-.343,2.119,2.119,0,0,1-.931-.6A1.655,1.655,0,0,1-35.84-5.32a1.821,1.821,0,0,1,.77-1.512,3.458,3.458,0,0,1,2.142-.588,5.56,5.56,0,0,1,1.428.189,3.929,3.929,0,0,1,1.176.5l-.434.8a3.717,3.717,0,0,0-2.17-.63,2.516,2.516,0,0,0-1.435.336,1.029,1.029,0,0,0-.483.882.871.871,0,0,0,.273.672,1.679,1.679,0,0,0,.679.371,10.956,10.956,0,0,0,1.12.245,12.884,12.884,0,0,1,1.414.336,2.077,2.077,0,0,1,.91.574,1.58,1.58,0,0,1,.378,1.12A1.781,1.781,0,0,1-30.877-.5,3.827,3.827,0,0,1-33.11.07Zm7.924,0a3.968,3.968,0,0,1-1.953-.476A3.446,3.446,0,0,1-28.49-1.743a3.85,3.85,0,0,1-.49-1.939,3.812,3.812,0,0,1,.49-1.932,3.459,3.459,0,0,1,1.351-1.33,3.968,3.968,0,0,1,1.953-.476,3.782,3.782,0,0,1,1.7.371A2.825,2.825,0,0,1-22.3-5.964l-.742.5a2.322,2.322,0,0,0-.924-.819,2.742,2.742,0,0,0-1.218-.273,2.884,2.884,0,0,0-1.435.357,2.509,2.509,0,0,0-.994,1.015,3.09,3.09,0,0,0-.357,1.5,3.08,3.08,0,0,0,.357,1.505,2.52,2.52,0,0,0,.994,1.008,2.884,2.884,0,0,0,1.435.357,2.8,2.8,0,0,0,1.218-.266,2.269,2.269,0,0,0,.924-.812l.742.5A2.815,2.815,0,0,1-23.492-.3,3.794,3.794,0,0,1-25.186.07ZM-19.4-5.922a2.409,2.409,0,0,1,1.043-1.12,3.544,3.544,0,0,1,1.715-.378v.966l-.238-.014a2.352,2.352,0,0,0-1.82.714,2.845,2.845,0,0,0-.658,2V0h-.994V-7.364h.952ZM-11.914.07a3.827,3.827,0,0,1-1.918-.483A3.522,3.522,0,0,1-15.176-1.75a3.812,3.812,0,0,1-.49-1.932,3.812,3.812,0,0,1,.49-1.932,3.472,3.472,0,0,1,1.344-1.33,3.872,3.872,0,0,1,1.918-.476A3.872,3.872,0,0,1-10-6.944a3.424,3.424,0,0,1,1.337,1.33,3.855,3.855,0,0,1,.483,1.932A3.855,3.855,0,0,1-8.659-1.75,3.473,3.473,0,0,1-10-.413,3.827,3.827,0,0,1-11.914.07Zm0-.882a2.779,2.779,0,0,0,1.407-.357,2.489,2.489,0,0,0,.973-1.015,3.14,3.14,0,0,0,.35-1.5,3.14,3.14,0,0,0-.35-1.5A2.489,2.489,0,0,0-10.507-6.2a2.779,2.779,0,0,0-1.407-.357,2.779,2.779,0,0,0-1.407.357A2.535,2.535,0,0,0-14.3-5.18a3.09,3.09,0,0,0-.357,1.5,3.09,3.09,0,0,0,.357,1.5,2.535,2.535,0,0,0,.98,1.015A2.779,2.779,0,0,0-11.914-.812Zm5.768-9.576h.994V0h-.994Zm3.766,0h.994V0H-2.38Z" transform="translate(979.106 949)" fill="#fff"/>
    <g id="사각형_9" data-name="사각형 9" transform="translate(949 899)" fill="none" stroke="#fff" stroke-width="1">
      <rect width="23" height="32" rx="11" stroke="none"/>
      <rect x="0.5" y="0.5" width="22" height="31" rx="10.5" fill="none"/>
    </g>
  </g>
</svg>
