<svg xmlns="http://www.w3.org/2000/svg" width="55.996" height="58.085" viewBox="0 0 55.996 58.085">
  <path id="symbol_seoul" d="M152.556,346.107h-1.827v2.311h1.827v-2.311Zm-7.993,17.5c2.638,3.484,7.277,2.689,7.277,2.689.562-4.932-1.433-6.531-1.433-6.531-1.241,2.617.634,5.78.634,5.78a8.127,8.127,0,0,0-6.478-1.938Zm4.812-27.07-.886-.829a8.106,8.106,0,0,0-3.7,2.446,7.963,7.963,0,0,0,.014-5.862l-.646-.528c-1.859,3.529.2,7.4.2,7.4a9.353,9.353,0,0,0,5.021-2.625Zm5.988,32.188a11.622,11.622,0,0,0-.715-3.541l-1.763,0a8.717,8.717,0,0,0,1.558,2.939,8.124,8.124,0,0,0-6.717-.785c3.206,2.974,7.637,1.386,7.637,1.386Zm6.512-20.638v.886h-.954v1.04h.84v.886h-.84v1.077h.969v.887h-1.914V348.1l-1.322,4.768h-.771l-1.38-4.776h1.012l.57,2.294a8.043,8.043,0,0,1,.17.816h.014c.05-.28.072-.551.145-.829l.575-2.281Zm1.188,10.589h-1.008l-.176-.8h-.956l-.173.8h-.936l1.108-4.775h.995l1.146,4.775Zm-.995-10.589h.95c.6,0,1.677.064,1.677,1.368a1.326,1.326,0,0,1-.677,1.234l.83,2.174h-.993l-.828-2.2h-.017v2.2h-.944v-4.776Zm2.967,0h.944v4.776h-.944v-4.776Zm-.7,10.665a1.439,1.439,0,0,1-.813-.241v-.9a1.217,1.217,0,0,0,.716.253.512.512,0,0,0,.546-.519c0-.367-.291-.507-.556-.7a1.571,1.571,0,0,1-.881-1.416,1.271,1.271,0,0,1,1.249-1.407,1.6,1.6,0,0,1,.832.234v.919a1.074,1.074,0,0,0-.681-.3.437.437,0,0,0-.477.467c0,.787,1.438.83,1.438,2.122a1.345,1.345,0,0,1-1.374,1.487Zm-4.693-3.964H158.9v3.888h-.947V354.79h-.739V353.9h2.433v.887Zm-4.714-12.215v20.092h9.952a4.711,4.711,0,0,1,2.284.913V347.507c-6.027-.133-7.242-4.932-7.242-4.932Zm23.107-10.382-2.984,3.248.03,5.186a5.985,5.985,0,0,1-.272,1.277h1.916l5.478-5.48-4.169-4.231Zm-25.422,24.842H150.79v2.313h1.824v-2.313ZM155.6,334.6l3.838,3.773v-2.921l-3.838-3.836V334.6Zm-3.024,32.341a.434.434,0,1,0-.434-.434.434.434,0,0,0,.434.434Zm-6.949-30.915a.434.434,0,1,0,.434-.434.436.436,0,0,0-.434.434Zm6.972,27.75c.017.2.057-.046.057-.046V360.91l-.465.517a9.967,9.967,0,0,1,.409,2.35Zm6.839-23.956v-.594L156.6,336.4H149.97l3.747,3.425Zm-14.394-8.06s-.25-1.545,1.363-3.86h-5.449s.231.632,4.086,3.86Zm-4.726,8.5c-.973,4.263,2.619,7.308,2.619,7.308,4.141-2.741,4.077-5.3,4.077-5.3-2.8.732-4.016,4.2-4.016,4.2a8.136,8.136,0,0,0-2.68-6.212Zm3.211,1.974a8.137,8.137,0,0,0-1.562-6.581c-1.7,4.028,1.312,7.651,1.312,7.651,4.552-1.979,4.935-4.508,4.935-4.508-2.882.232-4.686,3.438-4.686,3.438Zm.381,1.787a.432.432,0,1,0-.43.434.433.433,0,0,0,.43-.434Zm22.2,21.966h2.857s.189-1.24,1-1.24h11.86V343.879l-1.179-1.241v20.679H170.017a4.045,4.045,0,0,0-2.544,1.49,3.687,3.687,0,0,0-2.733-1.427H154.368V342.824L153.1,344.1v20.652h11.582s1.427.059,1.427,1.24Zm-18.586-38.349c-2.973,3.2-1.386,7.636-1.386,7.636,4.955-.3,6.181-2.546,6.181-2.546-2.792-.768-5.582,1.628-5.582,1.628a8.138,8.138,0,0,0,.787-6.718ZM161.5,355.856l-.108-.724h-.012l-.1.724-.2,1.271h.665l-.242-1.271Zm27.4,8.981a6.529,6.529,0,0,0,1.977-1.9,8.384,8.384,0,0,0-3.4.417l1.427,1.479Zm3.017-18.937s-1.3-3.442-4.114-4.107c0,0,0,2.558,4.2,5.2,0,0,3.516-3.129,2.444-7.368a8.154,8.154,0,0,0-2.533,6.274Zm-5.279,10.268s-1.641,1.961-.122,6.685c0,0,4.706-.134,6.608-4.067a8.137,8.137,0,0,0-5.972,3.175s1.216-3.47-.514-5.793Zm5.163-6s-.68-3.616-3.337-4.758c0,0-.448,2.52,3.235,5.85,0,0,4.011-2.469,3.688-6.828a8.148,8.148,0,0,0-3.586,5.736Zm-3.313-1.085s-.874,2.4,2.171,6.325c0,0,4.378-1.735,4.818-6.084a8.133,8.133,0,0,0-4.524,5.027s-.045-3.679-2.465-5.268Zm2.785,3.228a.434.434,0,1,0-.432-.434.431.431,0,0,0,.432.434Zm-2.537,7.423a.433.433,0,1,0-.433.435.435.435,0,0,0,.433-.435Zm-36.672-25.843h0a6.27,6.27,0,0,1-3.216,1.462l.628.587,6.572-.028-2.039-2.042h0l-1.036-1.034a10.774,10.774,0,0,1-.911,1.055Zm25.417,21.275h-.011l-.1.72-.2,1.274h.662l-.24-1.274-.106-.72Zm-13.708-5.7a.537.537,0,0,0-.638-.6h-.128v1.273l.166.007c.429,0,.6-.291.6-.681Zm9.329,2.65c.459,0,.459-.35.467-.7V348.12h.944V351.6c0,.506-.058,1.366-1.42,1.366-.88,0-1.405-.41-1.405-1.3V348.12h.945v3.09c0,.362-.044.906.469.906Zm2.429,1.819v.887h-.954v1.037h.842v.888h-.842v1.076h.967v.888h-1.912v-4.776Zm-.258-5.815h1.062l.273.666a6.152,6.152,0,0,1,.23.727h.012a4.793,4.793,0,0,1,.215-.727l.282-.666h1.023l-1.023,2.312,1.1,2.464h-1.1l-.3-.758a7.041,7.041,0,0,1-.207-.717h-.014c-.069.24-.125.474-.208.717l-.281.758h-1.062l1.01-2.464-1.01-2.312Zm2.875,10.591-.178-.807h-.956l-.174.807h-.935l1.109-4.776h1l1.147,4.776Zm-6.043,0-.227-3.441h-.013l-.154,1.179-.4,2.263h-.728l-.463-2.288-.159-1.064v-.089h-.01l-.141,3.441H168.8l.418-4.776h1.244l.461,2.818h.011l.381-2.818h1.265l.5,4.776Zm-3.06-10.591h.942v3.888h.987v.887h-1.93V348.12Zm-1.21-.735v16.2a3.4,3.4,0,0,1,2.189-.913h10.048V342.575h-5.421a7.321,7.321,0,0,1-6.815,4.81Zm-12.833-16.3a3.379,3.379,0,0,1-2.055.972l2.055,1.9v-2.875Zm8.628-1.9v-2.13h6.639V330.1h2.188v2.192h-2.127v.975h2.127v2.374h-2.127v7.125h-1.827l-2.528-2.528-2.312,2.314-1.677-1.674,3.836-3.835,1.978,1.978v-9.834Zm-3.412,10.21c0,5.055,3.167,7.387,7.076,7.387s7.084-2.326,7.084-7.387V324.988H160.227s0,9.359,0,14.409Zm-6.045.956,1.689,1.492h3.811a4.527,4.527,0,0,1-.123-1.462l-5.378-.03ZM184.854,359.4a1.815,1.815,0,0,0-.409.816l.915.951a4.555,4.555,0,0,0-.506-1.767ZM148.8,363.3c1.408-4.762-.282-6.678-.282-6.678-1.675,2.358-.378,5.8-.378,5.8a8.138,8.138,0,0,0-6.042-3.035c1.991,3.891,6.7,3.915,6.7,3.915Zm-.236-31.544c4.931.564,6.53-1.435,6.53-1.435-2.615-1.241-5.779.634-5.779.634a8.126,8.126,0,0,0,1.938-6.479c-3.484,2.638-2.689,7.28-2.689,7.28Zm10.324,34.888c.236,2.887,3.44,4.687,3.44,4.687a8.152,8.152,0,0,0-6.583,1.561c4.028,1.7,7.65-1.309,7.65-1.309-1.979-4.554-4.507-4.94-4.507-4.94Zm-12.569-6.831c2.214-4.442.886-6.626.886-6.626-2.062,2.031-1.38,5.646-1.38,5.646a8.139,8.139,0,0,0-5.428-4.038c1.291,4.175,5.922,5.017,5.922,5.017Zm9.955,5.387-.619,0c-.032,2.728,2.593,4.878,2.593,4.878a8.143,8.143,0,0,0-6.75.392c3.669,2.375,7.758.04,7.758.04-.8-3.316-2.189-4.74-2.982-5.306Zm-9.143,2.06a4.981,4.981,0,0,1,1.66-.548l-1.093-.257-.1.136c.059-.084.1-.136.1-.136l-4.818,5.073s-.548.794-.028,1.311a.962.962,0,0,0,1.155-.061l4.7-4.107a4.6,4.6,0,0,1-1.571-1.412Zm-2.649-11.31c2.954-3.991,2.023-6.373,2.023-6.373-2.38,1.645-2.339,5.324-2.339,5.324a8.14,8.14,0,0,0-4.641-4.921c.542,4.339,4.958,5.971,4.958,5.971Zm2.475-28.562-5.7-5.71s-2.39,1.712-.534,5.71Zm2.583-2.079-3.356-3.387a3.885,3.885,0,0,0-4.544-.71l6.611,6.585a5.52,5.52,0,0,1,1.289-2.489Zm-6.183,27.122a.432.432,0,1,0,.432-.436.434.434,0,0,0-.432.436Zm-.012-.6c3.6-3.419,3.1-5.927,3.1-5.927-2.63,1.2-3.228,4.835-3.228,4.835a8.141,8.141,0,0,0-3.716-5.652c-.22,4.367,3.847,6.744,3.847,6.744Zm3.161,8.4a.435.435,0,1,0,.435-.433.435.435,0,0,0-.435.433Zm36.314,6.334a.434.434,0,1,0-.433-.435.432.432,0,0,0,.433.435Zm2.3-.561-1.525-1.246c.033.388.082.8.156,1.238a8.031,8.031,0,0,0,1.369.008Zm4.269-7.682s.6-3.63-1.508-5.614c0,0-1.284,2.215,1.035,6.6,0,0,4.614-.948,5.8-5.154a8.136,8.136,0,0,0-5.33,4.164Zm-28.94,12.112a.434.434,0,1,0-.434.433.434.434,0,0,0,.434-.433Zm20.538-2.618a8.4,8.4,0,0,0,1.4-2.71l-1.766-.03a12.562,12.562,0,0,0-.545,3.362s3.815,1.268,6.866-.942l-1.175-.947a7.712,7.712,0,0,0-4.783,1.268Zm1.284-7.034v2.312l10.348,8.586h2.071l-10.536-10.9Zm-15.163,9.985v1.083c-.5-.789-2.448-3.642-4.654-3.782a7.225,7.225,0,0,0,4.049,4.048s-4.139.275-5.828,2.54a8.741,8.741,0,0,0,6.433-2.483v1.761h1.1v-3.168Zm1.828,1.34a7.22,7.22,0,0,0,4.016-4.077c-2.556.18-4.748,4.017-4.748,4.017a8.728,8.728,0,0,0,6.575,2.558c-1.7-2.253-5.843-2.5-5.843-2.5Zm4.247-.9s3.163-1.876,3.327-4.767c0,0-2.518.444-4.387,5.044,0,0,3.687,2.923,7.679,1.131a8.146,8.146,0,0,0-6.619-1.407Zm4.05-1.352s2.455-2.112,2.476-4.746l-.875.034a9.181,9.181,0,0,0-2.6,5.168s4.144,2.239,7.758-.219a8.133,8.133,0,0,0-6.759-.237Zm-2.176.415a.433.433,0,1,0,.435-.434.434.434,0,0,0-.435.434Zm15.337-31.641s2.238-4.142-.221-7.759a8.141,8.141,0,0,0-.235,6.761s-2.4-2.788-5.269-2.45c0,0,.871,2.4,5.726,3.448Zm-10.532-9.685,1.315-1.359a5.9,5.9,0,0,0-4.92.634s.873.991,3.605.725Zm8.74,7.027a.434.434,0,1,0-.434-.433.433.433,0,0,0,.434.433Zm2.965,6.773s2.925-3.693,1.129-7.681a8.142,8.142,0,0,0-1.406,6.617s-1.873-3.164-4.765-3.329c0,0,.445,2.518,5.042,4.392Zm-6.318-20.792a2.6,2.6,0,0,0,2.47-.034,2.372,2.372,0,0,1,2.626.29,2.148,2.148,0,0,1,.887,1.924c0,.835-.24.893-.24.893-.508.349-.382-.239-.382-.239.016-.008.115-.415.115-.415a1.858,1.858,0,0,0-1.5-2.161,1.914,1.914,0,0,0-2.248,1.35,3.167,3.167,0,0,0-.074,1.221l-2.246-2.247.105,1.9,5.022,5.025h1.8l-1.825-1.824a7.688,7.688,0,0,0,1.808.335,2.99,2.99,0,0,0,2.834-2.609c.678-2.566-1.752-4.634-1.752-4.634a7.607,7.607,0,0,0-4.074-1.507,6.151,6.151,0,0,1-4.721-2.632,6.848,6.848,0,0,0-.3,2.514,3.174,3.174,0,0,0,1.7,2.851Zm5.7,21.5a.434.434,0,1,0,.431-.435.431.431,0,0,0-.431.435Zm-9.516-16.2,1.06-1.077a6.787,6.787,0,0,0-3.622-4.442,7.558,7.558,0,0,0,2.562,5.518Zm2.66,30H182.27v2.314H184.1v-2.314Zm1.422-22.922a13.025,13.025,0,0,0,3.009.452,9.128,9.128,0,0,0,.308-3.627l-1.582,1.513a7.318,7.318,0,0,0,.653,1.207,8.02,8.02,0,0,0-1.132-.749l-1.256,1.2Zm-34.7-4.937a.434.434,0,1,0,.432-.434.433.433,0,0,0-.432.434Zm38.21.52-4.687-4.687-4.2,4.565,4.509,4.446,4.381-4.325Zm-9.956.154-.941,1.127,5.113,5.115,1.036-1.037-5.207-5.2ZM184,345.924h-1.825v2.314H184v-2.314Zm-21.885-22.092s1.438.952,3.965-.79c0,0-3.129-1.283-3.965.79Zm16.29,1.638a5.671,5.671,0,0,0-3.212.182l-.007,1.635a8.922,8.922,0,0,0,4.208-1.345s-.949-4.611-5.152-5.8a8.129,8.129,0,0,0,4.163,5.328Zm-18.853,2.036.032-1.59a8.579,8.579,0,0,0-3.559-.185,8.123,8.123,0,0,0,4.035-5.424c-4.18,1.288-5.018,5.92-5.018,5.92a10.727,10.727,0,0,0,4.51,1.279Zm-1.314.921c-2.361-1.676-5.8-.378-5.8-.378A8.146,8.146,0,0,0,155.475,322c-3.891,1.994-3.912,6.7-3.912,6.7,4.757,1.41,6.679-.28,6.679-.28Zm-.268-3.492a.434.434,0,1,0,.433-.434.435.435,0,0,0-.433.434Zm1.049-.458,3.278-.048a4.452,4.452,0,0,0-2.132-.59,7.391,7.391,0,0,0,4.711-4.408c-4.34.542-5.973,4.96-5.973,4.96.058.042.061.043.115.085Zm17.485.222a.434.434,0,1,0-.435.434.434.434,0,0,0,.435-.434Zm-2.3-.859a4.443,4.443,0,0,0-2.13.59l3.273.048c.059-.042.059-.043.117-.085,0,0-1.631-4.418-5.971-4.96a7.393,7.393,0,0,0,4.711,4.408Zm-7.04-.5a.581.581,0,1,0-.581-.582.581.581,0,0,0,.581.582Zm5.087.3c-.917-2.041-3.99-.641-3.99-.641,2.587,1.645,3.99.641,3.99.641" transform="translate(-139.484 -316.582)" fill="#001970"/>
</svg>
