<svg xmlns="http://www.w3.org/2000/svg" width="60.026" height="60.029" viewBox="0 0 60.026 60.029">
  <g id="symbol_yonsei" transform="translate(-66.783 -35.572)">
    <path id="패스_285" data-name="패스 285" d="M71.828,65.63A25.012,25.012,0,1,0,96.84,40.618,25.012,25.012,0,0,0,71.828,65.63Z" transform="translate(-0.044 -0.044)" fill="#fff"/>
    <g id="그룹_278" data-name="그룹 278" transform="translate(66.783 35.572)">
      <path id="패스_286" data-name="패스 286" d="M96.794,35.572a30.014,30.014,0,1,0,30.014,30.013A30.013,30.013,0,0,0,96.794,35.572Zm.087,51.863a21.9,21.9,0,1,1,21.9-21.9A21.9,21.9,0,0,1,96.882,87.435Z" transform="translate(-66.783 -35.572)" fill="#002866"/>
      <path id="패스_287" data-name="패스 287" d="M69.693,61.035l-.047.116-.038.588-.066.514c0,.038-.013.141.081.147.069.007.092-.068.109-.125a.087.087,0,0,1,.1-.07.631.631,0,0,1,.261.1c.079.047.4.271.719.484.269.185.514.356.639.436-.061.032-.143.067-.143.067-.443.2-1.371.626-1.5.675a.542.542,0,0,1-.178.046.056.056,0,0,1-.05-.047l0-.029c-.013-.071-.02-.132-.084-.138l-.062.016-.043.1-.026.4-.014.19-.053.435-.028.254c-.015.135.052.155.078.157s.092,0,.105-.114a.52.52,0,0,1,.086-.207,1.321,1.321,0,0,1,.42-.324c.306-.166,1.579-.786,1.661-.815a1.184,1.184,0,0,1,.572-.067l.449.044.542.068c.112.017.242.057.251.158l0,.184.024.115.053.027.065-.02a.2.2,0,0,0,.051-.135l.028-.41.018-.28.031-.254.065-.582a.2.2,0,0,0-.022-.139l-.061-.029c-.024,0-.09,0-.1.123l-.047.265c-.028.121-.108.169-.281.162l-.545-.034-.449-.044a1.262,1.262,0,0,1-.523-.129,17.751,17.751,0,0,1-1.634-1.2.759.759,0,0,1-.231-.306.554.554,0,0,1-.041-.227c.013-.138-.06-.155-.086-.156Z" transform="translate(-66.805 -35.796)" fill="#fff"/>
      <path id="패스_288" data-name="패스 288" d="M72.047,59.427c-1.392-.441-1.352-1.289-1.205-1.756a1.419,1.419,0,0,1,.71-.845,2.132,2.132,0,0,1,1.631-.059,1.938,1.938,0,0,1,1.215.846,1.125,1.125,0,0,1,.065.85h0A1.778,1.778,0,0,1,72.047,59.427Zm-.392-3.455a2.349,2.349,0,0,0-1.1,1.439,2.322,2.322,0,0,0,.092,1.8,2.246,2.246,0,0,0,1.31,1.081,2.139,2.139,0,0,0,2.782-1.5h0a2.214,2.214,0,0,0-1.49-2.909A2.031,2.031,0,0,0,71.655,55.972Z" transform="translate(-66.815 -35.75)" fill="#fff"/>
      <path id="패스_289" data-name="패스 289" d="M74.574,49.453l-.218.378-.053.091-.106.164-.257.394a.236.236,0,0,0-.055.16l.035.051c.055.034.1.01.15-.063a.883.883,0,0,1,.169-.219c.09-.065.186-.067.473.1l2.062,1.21c-.106.026-.485.107-.485.107l-1.151.251c-1.144.274-2.389.522-2.4.523l-.075.014c-.1.021-.17.032-.207.09a.107.107,0,0,0-.013.052c0,.076.1.139.15.169l2.75,1.753c.366.232.478.326.478.42a.206.206,0,0,1-.006.036l-.1.213-.032.11.036.049.068.014a.207.207,0,0,0,.1-.1l.253-.438.046-.077.081-.131.289-.442c.028-.041.091-.146.007-.2l-.06-.011-.087.081a.782.782,0,0,1-.173.213c-.057.046-.173.068-.57-.162,0,0-1.756-1.023-1.916-1.113l.084-.015c.337-.064,1.042-.2,1.7-.354l1.005-.239,1.227-.3A.359.359,0,0,0,78,52.124l.015-.075c-.011-.044-.051-.082-.135-.135l-2.927-1.876c-.217-.14-.281-.222-.281-.307a.323.323,0,0,1,.009-.064l.068-.137a.206.206,0,0,0,.037-.1.08.08,0,0,0-.042-.069C74.664,49.307,74.6,49.4,74.574,49.453Zm1.056,4.88Z" transform="translate(-66.833 -35.693)" fill="#fff"/>
      <path id="패스_290" data-name="패스 290" d="M77.663,46.027a2.741,2.741,0,0,0-.579.474,1.439,1.439,0,0,0-.44,1,.992.992,0,0,0,.319.7,1.694,1.694,0,0,0,1.547.319l.316-.046a1.02,1.02,0,0,1,.975.2.533.533,0,0,1,.164.387.7.7,0,0,1-.221.516.721.721,0,0,1-.892.179.966.966,0,0,1-.227-.151c-.083-.077-.141-.056-.169-.021-.066.07.025.168.059.205.009.013.5.519.5.519.1.094.149.108.256.061a1.884,1.884,0,0,0,.673-.494,1.6,1.6,0,0,0,.449-.815,1.228,1.228,0,0,0,.023-.229A1.157,1.157,0,0,0,80.047,48c-.389-.371-.827-.457-1.679-.324l-.189.031c-.592.1-.781.038-.938-.109a.487.487,0,0,1-.161-.35.636.636,0,0,1,.2-.455.643.643,0,0,1,.57-.237.662.662,0,0,1,.337.134l.108.056.063-.029.028-.061c0-.044-.032-.086-.106-.157l-.4-.405-.063-.066A.118.118,0,0,0,77.663,46.027Zm1.613,4.35Z" transform="translate(-66.87 -35.664)" fill="#fff"/>
      <path id="패스_291" data-name="패스 291" d="M81.462,42.827l-.046.05L81.4,42.9l-.167.167-1.094.818s-.229.164-.229.164l-.42.3c-.054.039-.088.071-.094.112l.019.063.053.035.112-.045.172-.108c.139-.063.208-.044.327.1s.2.253.7.927l.583.776c.3.408.561.755.672.954.08.145.113.23.061.288l-.14.129c-.088.064-.079.116-.056.148l.059.038.125-.049.346-.27.2-.156.341-.241.9-.645c.169-.127.236-.174.168-.344a3.724,3.724,0,0,0-.315-.544l-.093-.079-.061.017c-.066.049-.034.115-.012.156.1.2.112.315.045.437a1.411,1.411,0,0,1-.364.348c-.441.329-.53.3-.743.033l-.376-.5-.134-.183-.26-.351,0-.007c.128-.1.539-.4.621-.447.177-.1.264-.062.327-.013l.1.1.034.038.057.036.072-.018.034-.057-.049-.119-.2-.305-.18-.3-.029-.048-.057-.04-.062.018c-.038.026-.04.069-.045.131s-.059.127-.149.206c-.042.037-.192.158-.686.525l-.006,0-.011-.012-.832-1.119a.017.017,0,0,0-.007-.011c.11-.078.557-.4.634-.438.226-.135.292-.113.366-.063a.54.54,0,0,1,.135.126c.059.081.113.068.148.043a.1.1,0,0,0,.02-.136l-.136-.219-.058-.093-.153-.265-.03-.053-.064-.043Zm0,.133Zm.22.259Zm-1.971,1.11Z" transform="translate(-66.894 -35.636)" fill="#fff"/>
      <path id="패스_292" data-name="패스 292" d="M84.818,40.95l-.352.2-.235.132-.642.317c-.05.026-.157.082-.114.159.031.059.085.068.163.03l.174-.07c.075-.02.155-.014.263.165l.548,1.029.452.858c.251.48.447.856.529,1.072.061.152.061.221,0,.266l-.159.108c-.1.051-.092.105-.073.142s.068.074.181.017l.383-.213.226-.126.228-.113.538-.272c.123-.063.1-.135.086-.157l-.047-.038-.111.022-.254.109c-.127.046-.189,0-.269-.121-.127-.2-.321-.57-.569-1.042l-.458-.872c-.388-.741-.457-.875-.531-1.038a.459.459,0,0,1-.053-.182.169.169,0,0,1,.075-.138l.131-.084c.056-.028.086-.062.086-.1A.092.092,0,0,0,85,40.955C84.96,40.876,84.856,40.933,84.818,40.95Zm-1.028.677Z" transform="translate(-66.93 -35.619)" fill="#fff"/>
      <path id="패스_293" data-name="패스 293" d="M93.675,38.245l-.462.1-.154.034-.021,0-.6.106a.188.188,0,0,0-.126.057l-.012.064.037.055.12.009.184-.021c.15,0,.206.052.252.229l.235,1.142.134.676a1.851,1.851,0,0,1-.042,1.369,1.044,1.044,0,0,1-.66.417.958.958,0,0,1-.689-.082c-.244-.13-.5-.367-.664-1.216l-.148-.756c0-.016-.215-1.143-.215-1.143-.025-.188,0-.259.114-.3l.145-.047c.1-.02.119-.075.109-.116-.017-.094-.126-.072-.179-.061l-.39.087-.273.062-.284.049-.506.087c-.062.014-.109.029-.131.064l-.012.062.034.056.119.01.2-.025c.154,0,.206.05.253.229s.074.318.238,1.141l.157.79a1.878,1.878,0,0,0,.781,1.366,1.806,1.806,0,0,0,1.305.14,1.689,1.689,0,0,0,1.071-.624,2.1,2.1,0,0,0,.2-1.765l-.111-.578-.215-1.145c-.029-.187,0-.255.113-.3l.145-.047c.035-.009.141-.027.123-.119a.083.083,0,0,0-.075-.069Z" transform="translate(-66.982 -35.595)" fill="#fff"/>
      <path id="패스_294" data-name="패스 294" d="M96.433,38a.317.317,0,0,0-.058.2l-.185,3.255c-.025.488-.056.608-.165.633l-.235.017c-.112,0-.135.041-.137.081l.021.068a.205.205,0,0,0,.14.038l.506.007h.086l.155.012.53.035c.047,0,.169.009.174-.09l-.022-.059-.114-.036a.861.861,0,0,1-.269-.047c-.065-.028-.14-.112-.14-.519v-.058s.03-2.031.035-2.213l.056.065c.22.265.679.813,1.137,1.307l.7.76.854.925a.365.365,0,0,0,.215.144c.112,0,.12-.146.122-.212l.205-3.469c.021-.324.077-.391.191-.417l.152-.01.124-.028.025-.059c0-.094-.1-.1-.169-.1l-.435-.007H99.83l-.191-.012-.473-.031c-.083,0-.13,0-.167.031l-.025.056v0c0,.057.043.09.128.094a.849.849,0,0,1,.275.04c.1.046.142.116.142.391,0,.023,0,.045,0,.072,0,0-.037,1.968-.045,2.39l-.329-.371-.781-.88c-.8-.863-1.624-1.83-1.631-1.838l-.051-.056c-.064-.08-.112-.134-.179-.138Z" transform="translate(-67.037 -35.593)" fill="#fff"/>
      <path id="패스_295" data-name="패스 295" d="M102.675,38.717l-.036.045.01.073.1.055.174.063c.067.035.125.089.086.294l-.259,1.14-.221.943c-.124.5-.23.941-.307,1.156-.053.154-.1.205-.176.2l-.188-.024-.116,0-.035.049.01.068.116.066.43.093.251.053.245.063.588.151c.134.033.159-.04.165-.061l-.008-.058-.1-.058-.264-.083c-.128-.053-.143-.127-.124-.269.033-.233.136-.67.258-1.175l.223-.942.282-1.131c.052-.181.108-.233.226-.228l.159.023.111-.006.039-.059c.021-.085-.1-.115-.134-.123l-.4-.084-.262-.057-.691-.182A.229.229,0,0,0,102.675,38.717Zm.288.158Z" transform="translate(-67.091 -35.6)" fill="#fff"/>
      <path id="패스_296" data-name="패스 296" d="M105.789,39.46l-.041.044-.008.069.069.06.182.1c.144.118.2.2.2.514h0l-.049,3.64c0,.3-.007.393.087.433s.163-.025.388-.233l.056-.052,1.331-1.255.552-.509.644-.606c.27-.258.378-.308.451-.325a.418.418,0,0,1,.248.045l.113.014.047-.05c.037-.084-.074-.134-.107-.147l-.305-.12-.18-.068-.108-.053-.414-.192c-.072-.028-.184-.078-.225.015a.069.069,0,0,0-.008.033c0,.058.073.092.1.1l.177.105a.053.053,0,0,1,.022.044.311.311,0,0,1-.006.032.765.765,0,0,1-.118.153l-1.266,1.281s-.651.652-.749.756c.008-.157.108-2.59.108-2.59a1.483,1.483,0,0,1,.045-.424.091.091,0,0,1,.065-.057.372.372,0,0,1,.182.045c.106.043.145,0,.157-.038v-.057c-.012-.037-.051-.065-.118-.094l-.42-.168-.209-.081-.29-.134-.439-.2C105.88,39.46,105.833,39.444,105.789,39.46Z" transform="translate(-67.126 -35.606)" fill="#fff"/>
      <path id="패스_297" data-name="패스 297" d="M111.259,42.107l-.015.062.075.092.161.126c.108.111.11.182.014.34s-.165.272-.637.974l-.542.8c-.284.416-.524.776-.676.952-.11.125-.177.181-.251.151l-.169-.088-.111-.036-.052.036-.012.065.087.1.368.235.217.141.34.24.9.638c.178.12.248.164.386.043a4.12,4.12,0,0,0,.406-.477l.043-.114-.037-.053c-.067-.045-.12.008-.151.042-.153.159-.258.208-.4.187a1.366,1.366,0,0,1-.449-.229c-.282-.189-.393-.3-.393-.42a.57.57,0,0,1,.116-.273l.352-.524.122-.184.245-.36.007-.009c.119.081.548.379.625.443a.3.3,0,0,1,.138.224.192.192,0,0,1-.018.076l-.061.124-.026.048a.084.084,0,0,0,.028.126c.079.053.135-.034.163-.07l.22-.29.225-.271.041-.044.018-.064-.039-.053c-.039-.026-.081-.014-.14,0a.357.357,0,0,1-.242-.073c-.069-.039-.335-.211-.729-.478l.008-.015.78-1.155.006-.009c.113.076.56.393.625.448.153.133.189.2.189.272a.155.155,0,0,1-.011.057.528.528,0,0,1-.073.168l-.03.1.039.056a.1.1,0,0,0,.136-.027l.165-.2.064-.086.2-.231.045-.046a.079.079,0,0,0-.018-.121l-.063-.027-.026-.009-.213-.1c-.09-.053-1.034-.69-1.142-.762l-.227-.16-.421-.3C111.4,42.092,111.31,42.025,111.259,42.107Zm2.159,1.417Z" transform="translate(-67.155 -35.629)" fill="#fff"/>
      <path id="패스_298" data-name="패스 298" d="M115.335,47.906c-.112-.018-.17-.049-.319-.2a1.324,1.324,0,0,1-.252-.32c-.008-.015-.008-.023.029-.056l1.181-1.187c.019-.019.021-.018.037-.011a1.687,1.687,0,0,1,.215.181.8.8,0,0,1,.222.54,1.008,1.008,0,0,1-.34.708A.916.916,0,0,1,115.335,47.906Zm.573-1.824Zm-.575-1.1-.057.028-.028.061.056.1.136.154c.083.129.073.2-.051.34l-.811.828-.686.692c-.358.355-.668.664-.845.808-.13.1-.209.144-.276.1l-.149-.12-.1-.056-.056.026-.026.061.066.117.327.313.159.15.124.129.439.456.117.062.061-.025.027-.058-.043-.084-.17-.2a.179.179,0,0,1-.045-.11.354.354,0,0,1,.1-.2c.144-.181.451-.492.809-.852l.056-.052L114.8,48c.024.022.031.037.031.054v.007l-.069.44-.079.484a5.642,5.642,0,0,0-.083.769,1.23,1.23,0,0,0,.047.354,1.158,1.158,0,0,0,.354.509l.372.369.113.063.061-.028a.079.079,0,0,0,.026-.059.11.11,0,0,0-.042-.081l-.092-.113a1.064,1.064,0,0,1-.165-.643v-.035c.009-.4.067-.913.143-1.556,0,0,.022-.2.03-.266a1.573,1.573,0,0,0,1.378-.377.988.988,0,0,0,.279-.839,1.806,1.806,0,0,0-.561-.906l-.565-.536-.146-.157-.376-.388C115.411,45.018,115.374,44.986,115.333,44.986Z" transform="translate(-67.185 -35.655)" fill="#fff"/>
      <path id="패스_299" data-name="패스 299" d="M118.424,49.807a1.689,1.689,0,0,0-.627,1.446l-.019.324a1.031,1.031,0,0,1-.4.912.634.634,0,0,1-.875-.241.727.727,0,0,1,.01-.913.974.974,0,0,1,.193-.189l.071-.09-.016-.07c-.056-.081-.171-.014-.214.014-.016.008-.613.39-.613.39-.086.059-.12.1-.12.169a.269.269,0,0,0,.008.066,1.914,1.914,0,0,0,.345.761,1.621,1.621,0,0,0,.707.606A1.146,1.146,0,0,0,118,52.868c.443-.306.616-.716.662-1.574l0-.194c.03-.6.122-.773.3-.9a.486.486,0,0,1,.374-.089.645.645,0,0,1,.4.292.652.652,0,0,1,.116.608.633.633,0,0,1-.2.3c-.1.066-.086.125-.059.163.059.085.169.011.234-.036l.477-.308.077-.047a.124.124,0,0,0,.027-.155,2.693,2.693,0,0,0-.346-.664A1.16,1.16,0,0,0,118.424,49.807Zm-2.6,1.818Z" transform="translate(-67.215 -35.696)" fill="#fff"/>
      <path id="패스_300" data-name="패스 300" d="M121.5,52.973c-.055.029-.063.083-.027.165l.061.175c.02.073.012.154-.17.256l-1.043.52-.873.425c-.484.236-.869.422-1.088.5-.151.058-.217.056-.267-.009l-.1-.159-.079-.085-.06.007c-.043.019-.075.065-.021.178l.2.387.12.232.107.23.255.55.087.094.068,0,.041-.046-.018-.114-.1-.257c-.043-.128.007-.187.128-.266.2-.117.579-.3,1.063-.54l.882-.427c.753-.367.891-.434,1.05-.5.174-.073.25-.065.319.029l.085.138c.035.078.085.1.146.075.079-.039.027-.147.009-.181l-.183-.359-.124-.239-.3-.651C121.636,53.043,121.585,52.933,121.5,52.973Zm.122.321Z" transform="translate(-67.232 -35.725)" fill="#fff"/>
      <path id="패스_301" data-name="패스 301" d="M123.067,56.3c-.036,0-.558.042-.651.069-.031.007-.126.036-.1.128.019.072.1.069.126.068l.2.036c.11.035.17.129.273.437,0,0,.213.662.239.738-.083.027-2.124.624-2.124.624-.482.14-.9.264-1.127.3-.174.035-.258.023-.29-.043l-.075-.175-.061-.094-.06-.006c-.041.01-.087.051-.051.175l.136.414.075.245.069.248.158.586c.041.133.116.122.139.116a.082.082,0,0,0,.056-.088.217.217,0,0,0-.01-.064l-.056-.269c0-.015,0-.027,0-.039,0-.1.067-.151.2-.205.217-.092.634-.215,1.121-.357,0,0,1.829-.536,2.121-.623.02.076.167.626.167.626a1.47,1.47,0,0,1,.056.358c0,.159-.051.268-.138.3l-.059.023c-.051.019-.12.044-.12.112a.087.087,0,0,0,0,.033c.022.076.115.058.148.052.006,0,.625-.163.625-.163.056-.02.1-.036.122-.071l.006-.06-.03-.056a2.132,2.132,0,0,1-.172-.433l-.618-2.094-.127-.531v-.17l0-.08C123.208,56.293,123.119,56.3,123.067,56.3Z" transform="translate(-67.246 -35.755)" fill="#fff"/>
      <path id="패스_302" data-name="패스 302" d="M124.26,61.227a.62.62,0,0,1-.049.216,1.356,1.356,0,0,1-.352.4c-.274.224-1.406,1.068-1.484,1.109a1.112,1.112,0,0,1-.547.174h0l-.449.044-.548.031c-.107,0-.244-.011-.274-.109l-.041-.18-.042-.108-.056-.017c-.1.009-.087.127-.083.174l.049.407.031.277.019.258.043.582a.2.2,0,0,0,.051.133l.064.02.054-.027.022-.115,0-.268c.006-.123.077-.184.244-.214l.538-.063c.008,0,.455-.047.455-.047a1.293,1.293,0,0,1,.542.034,17.483,17.483,0,0,1,1.828.876.82.82,0,0,1,.284.258.558.558,0,0,1,.081.216c.013.139.089.142.112.141.058-.006.085-.058.077-.153l-.073-.587-.033-.515c0-.038-.014-.137-.107-.128-.065.009-.077.084-.085.142a.088.088,0,0,1-.086.091.666.666,0,0,1-.274-.05c-.087-.029-.447-.187-.8-.343-.293-.131-.571-.253-.7-.309l.122-.086c.37-.261,1.235-.876,1.361-.949a.5.5,0,0,1,.161-.077.053.053,0,0,1,.057.038l.012.027c.025.068.045.126.108.12l.056-.031.024-.105-.045-.4-.026-.186-.031-.441-.014-.252-.051-.12-.061-.019C124.318,61.094,124.248,61.111,124.26,61.227Z" transform="translate(-67.255 -35.797)" fill="#fff"/>
      <path id="패스_303" data-name="패스 303" d="M67.613,65.591A29.189,29.189,0,1,0,96.8,36.4,29.221,29.221,0,0,0,67.613,65.591Zm.369,0A28.82,28.82,0,1,1,96.8,94.415,28.85,28.85,0,0,1,67.982,65.591Z" transform="translate(-66.79 -35.579)" fill="#fff"/>
      <g id="그룹_269" data-name="그룹 269" transform="translate(15.088 11.325)">
        <path id="패스_304" data-name="패스 304" d="M82.63,69.113a23.1,23.1,0,0,0,4.3,9.289l9.977-9.977,10,10.011a23.069,23.069,0,0,0,4.323-9.32,74.369,74.369,0,0,0-28.6,0Z" transform="translate(-82.01 -47.181)" fill="#002866"/>
        <path id="패스_305" data-name="패스 305" d="M111.848,51.828s-8.632.292-14.919-4.83c-6.289,5.122-14.923,4.83-14.923,4.83V62.569a29.554,29.554,0,0,0,.443,5.471,75.363,75.363,0,0,1,28.959,0,29.633,29.633,0,0,0,.441-5.474Z" transform="translate(-82.005 -46.998)" fill="#002866"/>
        <path id="패스_306" data-name="패스 306" d="M89.4,81.121a29.08,29.08,0,0,0,7.588,5.131H97a29.09,29.09,0,0,0,7.555-5.1l-7.59-7.591Z" transform="translate(-82.07 -47.232)" fill="#002866"/>
        <path id="패스_307" data-name="패스 307" d="M86.968,78.408a23.7,23.7,0,0,0,2.412,2.667l7.566-7.563,7.59,7.591a23.976,23.976,0,0,0,2.415-2.661l-10-10.011Z" transform="translate(-82.049 -47.187)" fill="#fff"/>
        <path id="패스_308" data-name="패스 308" d="M82.452,68.215c.055.289.112.588.176.89a74.369,74.369,0,0,1,28.6,0c.07-.3.126-.6.178-.89a75.363,75.363,0,0,0-28.959,0Z" transform="translate(-82.009 -47.172)" fill="#fff"/>
      </g>
      <g id="그룹_270" data-name="그룹 270" transform="translate(16.959 21.933)">
        <path id="패스_309" data-name="패스 309" d="M84.589,60.035a1.346,1.346,0,0,0,.658-.133c.207-.105.538-.311.731-.118V57.758c-.1-.078-.242-.092-.572.049a3.079,3.079,0,0,1-.818.222.106.106,0,0,0-.093.117l-.029,1.724S84.447,60.042,84.589,60.035Z" transform="translate(-83.898 -57.7)" fill="#fff"/>
        <path id="패스_310" data-name="패스 310" d="M86.946,59.9a1.349,1.349,0,0,0,.659.133c.141.007.121-.166.121-.166l-.032-1.724c0-.112-.09-.117-.09-.117a3,3,0,0,1-.816-.222c-.328-.141-.48-.127-.574-.049v2.026C86.411,59.591,86.736,59.8,86.946,59.9Z" transform="translate(-83.913 -57.7)" fill="#fff"/>
        <path id="패스_311" data-name="패스 311" d="M88.276,60.573,88.17,58.65a.447.447,0,0,0-.061-.187,1.443,1.443,0,0,0-.148-.193.036.036,0,0,0-.05,0c-.028.026-.022.089-.022.089l.042,1.745s.012.167-.1.186a1.571,1.571,0,0,1-.862-.078s-.261-.108-.38-.17a.655.655,0,0,1-1.01,0c-.121.062-.381.17-.381.17a1.568,1.568,0,0,1-.861.078c-.112-.02-.1-.186-.1-.186l.042-1.745a.152.152,0,0,0-.02-.089.032.032,0,0,0-.047,0,1.353,1.353,0,0,0-.153.193.438.438,0,0,0-.06.187l-.1,1.924s-.014.2.156.181l1.535-.222s.188-.046.231.077a.266.266,0,0,0,.268.151h0a.262.262,0,0,0,.264-.151c.045-.123.234-.077.234-.077l1.536.222C88.288,60.772,88.276,60.573,88.276,60.573Z" transform="translate(-83.893 -57.705)" fill="#fff"/>
      </g>
      <path id="패스_312" data-name="패스 312" d="M97,65.653a6.98,6.98,0,1,1,6.994-6.982A6.99,6.99,0,0,1,97,65.653Zm0-10.554a3.576,3.576,0,1,0,3.576,3.577A3.576,3.576,0,0,0,96.994,55.1Z" transform="translate(-66.987 -35.714)" fill="#fff"/>
      <path id="패스_313" data-name="패스 313" d="M93.947,79.673c-.115.083-.694.464-.713.477a.092.092,0,0,0-.053.079.075.075,0,0,0,.064.081l.057-.02.1-.041a1.745,1.745,0,0,1,.248-.1c0,.01,0,.065,0,.065l0,.405v.5l-.013.695c-.008.091-.022.109-.087.127l-.24.02a.069.069,0,0,0-.067.076c0,.032.016.07.094.07l.384-.007.148,0,.136,0,.383.007c.077,0,.093-.039.093-.07a.071.071,0,0,0-.07-.076l-.2-.02c-.065-.014-.08-.031-.089-.127l-.013-.695v-.573l.014-.763,0-.046c0-.1-.056-.107-.076-.107Z" transform="translate(-67.015 -35.96)" fill="#fff"/>
      <path id="패스_314" data-name="패스 314" d="M95.323,81.476a.638.638,0,0,1,.325-.551c.257.15.478.287.478.563a.393.393,0,0,1-.394.427A.42.42,0,0,1,95.323,81.476ZM95,80.229a.672.672,0,0,0,.405.568.8.8,0,0,0-.528.7h0c0,.4.325.653.825.653a.778.778,0,0,0,.868-.733.822.822,0,0,0-.513-.692.657.657,0,0,0,.407-.575c0-.317-.272-.52-.681-.52C95.212,79.625,95,79.989,95,80.229Zm.411-.061a.309.309,0,0,1,.335-.323.3.3,0,0,1,.3.327.44.44,0,0,1-.256.421C95.516,80.437,95.416,80.327,95.416,80.167Z" transform="translate(-67.03 -35.96)" fill="#fff"/>
      <path id="패스_315" data-name="패스 315" d="M97.491,81.476a.643.643,0,0,1,.321-.551c.261.15.48.287.48.563a.393.393,0,0,1-.391.427A.421.421,0,0,1,97.491,81.476Zm-.318-1.247a.67.67,0,0,0,.4.568.8.8,0,0,0-.524.7c0,.4.322.653.825.653a.779.779,0,0,0,.866-.733.826.826,0,0,0-.515-.692.652.652,0,0,0,.405-.575c0-.317-.267-.52-.682-.52C97.38,79.625,97.173,79.989,97.173,80.229Zm.411-.061a.308.308,0,0,1,.334-.323.3.3,0,0,1,.3.327.438.438,0,0,1-.26.421C97.685,80.437,97.584,80.327,97.584,80.167Z" transform="translate(-67.05 -35.96)" fill="#fff"/>
      <path id="패스_316" data-name="패스 316" d="M100.5,79.662l-.205.014h-.761a.088.088,0,0,0-.1.08l-.073.821a.1.1,0,0,0,.1.11c.209.027.747.207.747.693a.465.465,0,0,1-.469.524.329.329,0,0,1-.376-.372c0-.086-.045-.1-.073-.1-.057,0-.073.07-.079.093l-.012.356v.042a.148.148,0,0,0,.083.162h0a.711.711,0,0,0,.308.06.95.95,0,0,0,1.065-.919c0-.53-.518-.811-1.022-.9.008-.059.027-.245.033-.3h.526c.229,0,.229.065.229.126,0,.079.059.085.071.085a.075.075,0,0,0,.073-.073l.045-.4c0-.032,0-.105-.075-.105Z" transform="translate(-67.068 -35.96)" fill="#fff"/>
      <path id="패스_317" data-name="패스 317" d="M71.631,72.965a.884.884,0,1,0,.884-.883A.883.883,0,0,0,71.631,72.965Z" transform="translate(-66.826 -35.894)" fill="#fff"/>
      <path id="패스_318" data-name="패스 318" d="M122.418,72.965a.884.884,0,1,1-.885-.883A.884.884,0,0,1,122.418,72.965Z" transform="translate(-67.257 -35.894)" fill="#fff"/>
      <g id="그룹_271" data-name="그룹 271" transform="translate(39.447 20.85)">
        <path id="패스_319" data-name="패스 319" d="M108.87,59.547h-2.1s-.126-.017-.073.116l.148.292a.115.115,0,0,0,.112.067h1.729a.117.117,0,0,0,.114-.067l.152-.3A.077.077,0,0,0,108.87,59.547Z" transform="translate(-106.581 -56.633)" fill="#fff"/>
        <path id="패스_320" data-name="패스 320" d="M108.5,60.289h-1.342s-.136-.013-.083.106l.089.188a.125.125,0,0,0,.116.074h1.088a.119.119,0,0,0,.118-.064l.105-.208C108.636,60.276,108.5,60.289,108.5,60.289Z" transform="translate(-106.584 -56.64)" fill="#fff"/>
        <path id="패스_321" data-name="패스 321" d="M108.327,61.04c.057-.134-.079-.127-.079-.127h-.833s-.136-.007-.081.127l.271.564v.722a.147.147,0,0,0,.142.15h.161a.148.148,0,0,0,.142-.15V61.6Z" transform="translate(-106.587 -56.645)" fill="#fff"/>
        <path id="패스_322" data-name="패스 322" d="M107.707,59.241a1.792,1.792,0,0,0,1.136-.305.675.675,0,0,0,.215-.606,1.719,1.719,0,0,0-.522-.8,1.146,1.146,0,0,1-.29-.843c.009-.065-.072-.122-.2-.042,0,0-1.218.825-.968,1.8a.8.8,0,0,1-.033-.932c.014-.027-.008-.092-.118-.008a.93.93,0,0,0-.154,1.28A1.277,1.277,0,0,0,107.707,59.241Z" transform="translate(-106.58 -56.607)" fill="#fff"/>
      </g>
      <g id="그룹_277" data-name="그룹 277" transform="translate(7.697 43.413)">
        <g id="그룹_272" data-name="그룹 272" transform="translate(19.83 9.761)">
          <path id="패스_323" data-name="패스 323" d="M98.455,89.219V90.55H98.1V89.219h-.9v.112h0c.09,0,.176.151.176.314v2.87H95.51V89.948h1.242v-.6h-2.2v.108h0c.09,0,.178.151.178.316v3.356h2.645v.96H98.1V91.155h.352v2.929h.78V89.219h-.78Z" transform="translate(-94.554 -89.219)" fill="#fff"/>
        </g>
        <g id="그룹_273" data-name="그룹 273" transform="translate(38.979)">
          <path id="패스_324" data-name="패스 324" d="M119.311,81.855c-.621-.517-2.958-2.456-2.992-2.484h0s-2.411,2.9-2.443,2.943c.037.031.43.357.467.39.033-.043,1.946-2.349,1.946-2.349l2.526,2.1-.379.463s-1.282-1.06-1.318-1.1c-.034.04-.446.539-.477.575l1.318,1.092-.256.305L116.382,82.7c-.029.039-.52.628-.553.665.023.02.059.052.083.07h0c.056-.071.23-.038.356.066l.989.82s-.522.635-.557.671c.035.032.431.358.468.389.031-.041,2.875-3.469,2.91-3.51-.037-.026-.432-.356-.469-.39C119.6,81.5,119.477,81.652,119.311,81.855Z" transform="translate(-113.873 -79.371)" fill="#fff"/>
        </g>
        <g id="그룹_274" data-name="그룹 274" transform="translate(8.227 6.826)">
          <path id="패스_325" data-name="패스 325" d="M88.006,87.474c-.021.049-2.008,4.372-2.032,4.423.046.017.664.306.71.325.019-.051,2.01-4.375,2.032-4.422h0Z" transform="translate(-82.876 -86.269)" fill="#fff"/>
          <path id="패스_326" data-name="패스 326" d="M86.92,86.975c-.014.026-.034.068-.047.1h0c.082.036.094.212.027.362l-.377.821-.742-.341c-.02.043-.232.507-.252.552l.741.34s-1.2,2.614-1.226,2.66c.045.019.585.269.628.29.022-.049,2.008-4.375,2.032-4.423h0S86.966,86.994,86.92,86.975Z" transform="translate(-82.867 -86.264)" fill="#fff"/>
          <path id="패스_327" data-name="패스 327" d="M84.868,88.328l-.024-.048.017-.013a3.973,3.973,0,0,0,1.23-1.537h0c-.045-.022-.979-.452-1.026-.472-.01.026-.034.072-.045.1h0c.011.007.2.156.037.515h0a3.7,3.7,0,0,1-2.209,1.763c.021.047.17.428.185.462h0a3.826,3.826,0,0,0,1.3-.486l.025-.015.013.026a4.871,4.871,0,0,1,.439,1.462c.067-.036.606-.343.637-.362A6.151,6.151,0,0,0,84.868,88.328Z" transform="translate(-82.848 -86.258)" fill="#fff"/>
        </g>
        <g id="그룹_275" data-name="그룹 275" transform="translate(30.288 6.611)">
          <path id="패스_328" data-name="패스 328" d="M107.064,91.255,110,89.844s.432.9.453.946c.047-.021.66-.317.7-.338-.023-.044-.693-1.449-.718-1.493-.047.023-3.593,1.724-3.644,1.746Z" transform="translate(-105.12 -86.067)" fill="#fff"/>
          <path id="패스_329" data-name="패스 329" d="M109.068,86.041c-.045.022-.819.392-.863.414.012.026.035.07.047.1l0,0c.081-.041.224.063.294.212l1.024,2.132c.043-.021.66-.317.7-.337l-.384-.8.691-.329c-.019-.043-.216-.452-.236-.493-.047.019-.689.333-.689.333S109.092,86.089,109.068,86.041Z" transform="translate(-105.132 -86.041)" fill="#fff"/>
          <path id="패스_330" data-name="패스 330" d="M105.843,89.4a1.4,1.4,0,0,0,2.5-1.2,1.163,1.163,0,0,0-.757-.6c.3-.144.509-.245.523-.253-.022-.043-.24-.5-.262-.548l-.983.475-.178-.372h0l-.863.413.049.1v0c.069-.033.193.047.271.174l.018.028s-1.005.48-1.052.5c.02.043.243.5.262.544.014,0,.2-.1.477-.224A1.139,1.139,0,0,0,105.843,89.4Zm1.554.042a.71.71,0,1,1,.307-.936A.7.7,0,0,1,107.4,89.442Z" transform="translate(-105.105 -86.048)" fill="#fff"/>
        </g>
        <g id="그룹_276" data-name="그룹 276" transform="translate(0 0.295)">
          <path id="패스_331" data-name="패스 331" d="M76.249,82.334h0l-.628-.72c-.022.017-.059.05-.081.07h0c.059.067,0,.233-.124.343,0,0-.832.725-.867.754.034.042,2.414,2.769,2.446,2.81.037-.033.424-.371.459-.4l-1.936-2.219Z" transform="translate(-74.548 -79.686)" fill="#fff"/>
          <path id="패스_332" data-name="패스 332" d="M77.744,82.487c.223.258.656.754.656.754l-.953.835c.033.037.482.552.513.587.04-.035,2.608-2.275,2.645-2.309-.029-.039-.594-.683-.627-.723-.022.02-.058.053-.081.071h0c.058.068,0,.234-.126.344l-.14.122s-.589-.674-.722-.828a1.52,1.52,0,0,0-.375-1.146,1.35,1.35,0,1,0-2.027,1.769A1.482,1.482,0,0,0,77.744,82.487Zm1.433.079-.319.277s-.27-.311-.495-.569a.871.871,0,0,0,.12-.091,1.4,1.4,0,0,0,.185-.2C78.886,82.236,79.177,82.566,79.177,82.566Zm-2.13-2.031a.726.726,0,1,1-.114,1.059A.757.757,0,0,1,77.047,80.535Z" transform="translate(-74.562 -79.669)" fill="#fff"/>
        </g>
      </g>
    </g>
  </g>
</svg>
