<svg xmlns="http://www.w3.org/2000/svg" width="82.115" height="6.971" viewBox="0 0 82.115 6.971">
  <g id="symbol_postech" transform="translate(-87.537 -281.031)">
    <path id="패스_377" data-name="패스 377" d="M345.577,283.818h-2.209l-.4,1.477h4.414a2.733,2.733,0,0,0,2.662-2.188c.307-1.146-.236-2.076-1.7-2.076h-8.831l-1.557,5.8a.852.852,0,0,0,.842,1.149h8.754l.4-1.476h-6.267a.137.137,0,0,1-.136-.185l1.023-3.816h3.585a.444.444,0,0,1,.439.6A.96.96,0,0,1,345.577,283.818Z" transform="translate(-202.709 0)" fill="#b9004d"/>
    <g id="그룹_288" data-name="그룹 288" transform="translate(147.001 281.031)">
      <path id="패스_378" data-name="패스 378" d="M404.439,282.691a.26.26,0,0,1,.233-.184h6.111l.4-1.477h-9.744l-1.545,5.756a.906.906,0,0,0,.921,1.2h8.506l.4-1.476h-5.984a.227.227,0,0,1-.23-.3Z" transform="translate(-399.848 -281.031)" fill="#b9004d"/>
    </g>
    <path id="패스_379" data-name="패스 379" d="M463.532,281.031l-.675,2.517h-3.421l.674-2.517h-3.452l-1.864,6.954h3.452l.794-2.96h3.421l-.794,2.96h3.454l1.863-6.954Z" transform="translate(-297.332 0)" fill="#b9004d"/>
    <path id="패스_380" data-name="패스 380" d="M99.48,281.381a2.235,2.235,0,0,0-1.352-.35H89.406l-1.869,6.95h3.454l1.472-5.472h3.293c.615,0,.8.406.666.91a1.273,1.273,0,0,1-1.154.909H93.035l-.4,1.477h4.209a3.152,3.152,0,0,0,3.025-2.387A1.8,1.8,0,0,0,99.48,281.381Z" transform="translate(0 0)" fill="#b9004d"/>
    <path id="패스_381" data-name="패스 381" d="M163.035,281.031h-7.64a2.242,2.242,0,0,0-2.339,1.749l-.892,3.358A1.384,1.384,0,0,0,153.527,288h7.64a2.308,2.308,0,0,0,2.363-1.863l.869-3.244C164.674,281.87,164.4,281.031,163.035,281.031Zm-2.152,2.1-.743,2.775a.873.873,0,0,1-.787.621h-3.22a.462.462,0,0,1-.455-.621l.743-2.775a.871.871,0,0,1,.787-.621h3.221C160.9,282.508,160.975,282.787,160.883,283.129Z" transform="translate(-52.269 0)" fill="#b9004d"/>
    <path id="패스_382" data-name="패스 382" d="M292.268,281.031h-11.3l-.4,1.476h3.992L283.1,288H286.6l1.472-5.494h3.8Z" transform="translate(-156.285 0)" fill="#b9004d"/>
    <path id="패스_383" data-name="패스 383" d="M216.812,283.107a1.539,1.539,0,0,0,1.519,2.077h4.714a.5.5,0,0,1,.491.671.847.847,0,0,1-.851.671h-6.395l-.4,1.476h8.372a2.675,2.675,0,0,0,2.723-2.147c.318-1.186-.01-2.148-1.572-2.148H220.7a.444.444,0,0,1-.438-.6l.16-.6h7.007l.4-1.477H217.369Z" transform="translate(-103.919 0)" fill="#b9004d"/>
  </g>
</svg>
