<svg xmlns="http://www.w3.org/2000/svg" width="46.008" height="61.861" viewBox="0 0 46.008 61.861">
  <g id="symbol_korea" transform="translate(-225.769 -279.064)">
    <path id="패스_333" data-name="패스 333" d="M271.775,312.539V279.064H225.769v33.491c0,.489-.034,12.258,8.346,19.234l-.019-.014a60.449,60.449,0,0,0,14.319,9.084l.154.065h.418l.161-.077a80.028,80.028,0,0,0,14.4-9.051C271.941,324.81,271.786,313.037,271.775,312.539Z" transform="translate(0)" fill="#7c001b"/>
    <g id="그룹_280" data-name="그룹 280" transform="translate(227.362 280.768)">
      <path id="패스_334" data-name="패스 334" d="M227.662,280.973v.327h42.731v-.327Z" transform="translate(-227.565 -280.973)" fill="#dccdba"/>
      <path id="패스_335" data-name="패스 335" d="M227.662,291.22v.327h42.731v-.327Z" transform="translate(-227.565 -282.071)" fill="#dccdba"/>
      <path id="패스_336" data-name="패스 336" d="M227.554,297.338v.326h42.732v-.326Z" transform="translate(-227.554 -282.727)" fill="#dccdba"/>
      <path id="패스_337" data-name="패스 337" d="M235.921,288.9a6.611,6.611,0,0,1-.912-.827l-2.275-2.52c.076-.093,2.3-2.807,2.3-2.809l.13-.137h-1.119l-2.495,3.086v-3.086h-1.129v6.517h1.129v-3.337l2.605,2.9a1.357,1.357,0,0,0,1.147.438h.931l-.222-.158-.087-.066Z" transform="translate(-227.861 -281.148)" fill="#dccdba"/>
      <path id="패스_338" data-name="패스 338" d="M242.137,282.389a3.516,3.516,0,0,0-2.539.993,3.248,3.248,0,0,0-1.044,2.423,3.3,3.3,0,0,0,1.033,2.483,3.425,3.425,0,0,0,2.457.962,3.465,3.465,0,0,0,2.486-1,3.352,3.352,0,0,0,1.034-2.5,3.239,3.239,0,0,0-.959-2.345,3.366,3.366,0,0,0-2.468-1.023m-.046,6.012a2.092,2.092,0,0,1-1.7-.846,2.863,2.863,0,0,1-.631-1.837,2.576,2.576,0,0,1,.632-1.785,2.173,2.173,0,0,1,1.678-.692,2.057,2.057,0,0,1,1.684.835,2.979,2.979,0,0,1,.6,1.875,2.548,2.548,0,0,1-.612,1.756,2.151,2.151,0,0,1-1.654.694Z" transform="translate(-228.733 -281.124)" fill="#dccdba"/>
      <path id="패스_339" data-name="패스 339" d="M260.088,286h2.095v-.854h-2.095v-1.689c.456-.01,2.563,0,2.587,0h.071v-.876l-3.8,0v.072l.005,6.463h4.186l.011-.919-3.063,0V286Z" transform="translate(-230.919 -281.145)" fill="#dccdba"/>
      <path id="패스_340" data-name="패스 340" d="M269.985,282.584h-1.046l-2.666,6.535h1.009s.866-2.307.9-2.4h2.354c.032.089.914,2.4.914,2.4H272.7l-2.667-6.535h-.047m.185,3.273H268.5c.064-.169.733-1.861.847-2.146.108.286.763,1.979.828,2.146Z" transform="translate(-231.704 -281.145)" fill="#dccdba"/>
      <path id="패스_341" data-name="패스 341" d="M254.044,287.643l-1.358-1.7a2.471,2.471,0,0,0,.918-.571,1.639,1.639,0,0,0,.491-1.156,1.455,1.455,0,0,0-.541-1.17,2.352,2.352,0,0,0-1.538-.464h-2.17v6.534h1.164v-.1a12.158,12.158,0,0,1-.032-1.331V283.4a3.143,3.143,0,0,1,1.655.241.789.789,0,0,1,.33.7c0,.721-.533,1.152-1.617,1.315l-.121.018,2.289,2.932a1.422,1.422,0,0,0,1.182.512h.932l-.193-.131a6.633,6.633,0,0,1-1.392-1.345Z" transform="translate(-229.943 -281.146)" fill="#dccdba"/>
      <path id="패스_342" data-name="패스 342" d="M249.883,294.473h1v-.407h-1v-.8c.217-.007,1.22,0,1.234,0h.031v-.419h-1.806v.035l0,3.08h1.988l.012-.439-1.462,0v-1.047Z" transform="translate(-229.889 -282.245)" fill="#dccdba"/>
      <path id="패스_343" data-name="패스 343" d="M232.982,292.846h-.376l0,1.92c0,.572-.133.884-.837.884h-.083c-.468,0-.7-.3-.7-.884l0-1.92h-.542l0,1.921a2.767,2.767,0,0,0,.029.488.913.913,0,0,0,.217.45,1.125,1.125,0,0,0,.865.335h.35a1.125,1.125,0,0,0,.865-.335.913.913,0,0,0,.217-.45,2.912,2.912,0,0,0,.027-.488v-1.921Z" transform="translate(-227.864 -282.245)" fill="#dccdba"/>
      <path id="패스_344" data-name="패스 344" d="M238.269,292.846l0,.035s0,2.071,0,2.253c-.117-.146-1.8-2.287-1.8-2.287h-.468v3.12h.407s0-2.15,0-2.332c.114.147,1.827,2.33,1.827,2.33l.45,0v-3.12h-.411Z" transform="translate(-228.458 -282.245)" fill="#dccdba"/>
      <path id="패스_345" data-name="패스 345" d="M241.576,292.846v3.12h.535l0-3.12h-.538Z" transform="translate(-229.057 -282.245)" fill="#dccdba"/>
      <path id="패스_346" data-name="패스 346" d="M263.419,295.965h.538v-3.12h-.541v2.435l0,.684" transform="translate(-231.397 -282.245)" fill="#dccdba"/>
      <path id="패스_347" data-name="패스 347" d="M246.545,292.846s-.832,2.279-.893,2.445c-.058-.167-.876-2.445-.876-2.445h-.612l1.162,3.121h.488l1.2-3.121h-.473Z" transform="translate(-229.334 -282.245)" fill="#dccdba"/>
      <path id="패스_348" data-name="패스 348" d="M260.25,294.374l-.419-.206-.357-.176c-.262-.137-.4-.287-.4-.445a.319.319,0,0,1,.184-.3.737.737,0,0,1,.4-.075,1.284,1.284,0,0,1,.7.2l.054.044v-.554l-.022-.008a2.41,2.41,0,0,0-.7-.1,1.584,1.584,0,0,0-.81.19.71.71,0,0,0-.388.65.828.828,0,0,0,.43.713l.154.077.622.3c.262.138.394.3.394.479a.372.372,0,0,1-.214.331.762.762,0,0,1-.413.116,1.891,1.891,0,0,1-.936-.25l-.061-.037.081.544.02.007a2.4,2.4,0,0,0,.843.143,1.5,1.5,0,0,0,.942-.286.87.87,0,0,0,.333-.708.781.781,0,0,0-.43-.654Z" transform="translate(-230.866 -282.235)" fill="#dccdba"/>
      <path id="패스_349" data-name="패스 349" d="M266.31,292.833v.409s.805,0,.87,0v2.711h.538s0-2.645,0-2.711h.889v-.411Z" transform="translate(-231.708 -282.244)" fill="#dccdba"/>
      <path id="패스_350" data-name="패스 350" d="M272.54,292.837s-.8,1.228-.849,1.312c-.054-.084-.837-1.316-.837-1.316h-.621s1.111,1.746,1.123,1.764,0,1.358,0,1.358h.539s0-1.337,0-1.357,1.167-1.761,1.167-1.761Z" transform="translate(-232.128 -282.244)" fill="#dccdba"/>
      <path id="패스_351" data-name="패스 351" d="M255.869,295.255l-.646-.809a1.171,1.171,0,0,0,.437-.271.789.789,0,0,0,.235-.552.7.7,0,0,0-.257-.56,1.127,1.127,0,0,0-.732-.22h-1.034v3.114h.554v-.049a6.279,6.279,0,0,1-.013-.635v-2.044a1.474,1.474,0,0,1,.786.117.369.369,0,0,1,.159.333c0,.344-.254.551-.769.628l-.06.007,1.091,1.4a.679.679,0,0,0,.56.246h.449l-.095-.064a3.151,3.151,0,0,1-.663-.639Z" transform="translate(-230.374 -282.245)" fill="#dccdba"/>
    </g>
    <g id="그룹_281" data-name="그룹 281" transform="translate(227.368 297.443)">
      <path id="패스_352" data-name="패스 352" d="M270.364,314.762v.072c0,.988-.175,11.721-7.637,17.933a78.879,78.879,0,0,1-13.77,8.7,60.224,60.224,0,0,1-13.609-8.685l-.018-.014c-7.682-6.394-7.77-17.576-7.77-17.987V299.649h42.8Z" transform="translate(-227.56 -299.649)" fill="#dccdba"/>
    </g>
    <g id="그룹_282" data-name="그룹 282" transform="translate(230.233 300.803)">
      <path id="패스_353" data-name="패스 353" d="M247.484,340.213h.587a.05.05,0,0,0,.053-.073,5.378,5.378,0,0,1-.069-2.131s.022-.073-.062-.073h-.58c-.079,0-.05.063-.05.063a6.392,6.392,0,0,1,.071,2.136s-.037.079.051.079Z" transform="translate(-232.547 -307.113)" fill="#7c001b"/>
      <path id="패스_354" data-name="패스 354" d="M249.828,337.862c-.935.091-.878,1.187-.878,1.187a1.334,1.334,0,0,0,1.087,1.18,1.721,1.721,0,0,1-1.032.987c-.179.07-.048.12-.048.12a.994.994,0,0,0,.552-.056,2.438,2.438,0,0,0,1.41-2.057c.029-1.469-1.09-1.362-1.09-1.362m.334,2.02c-.447.013-.555-.685-.555-.685-.114-.765.183-.808.183-.808.314-.1.452.553.452.553.153.751-.079.94-.079.94Z" transform="translate(-232.714 -307.105)" fill="#7c001b"/>
      <path id="패스_355" data-name="패스 355" d="M253.6,338.75a1.018,1.018,0,0,0-.978-.9s-.845-.022-.883,1.149c0,0-.032,1.235,1.035,1.18,0,0,1.045-.064.826-1.429m-.811,1.038c-.405.149-.449-.677-.449-.677-.044-.788.278-.866.278-.866.324-.082.414.5.414.5.148.9-.243,1.045-.243,1.045Z" transform="translate(-233.017 -307.104)" fill="#7c001b"/>
      <path id="패스_356" data-name="패스 356" d="M254.088,340.491a.923.923,0,0,0,1.141-.462c.287-.905-.845-.95-.845-.95l.182-1.167a5.228,5.228,0,0,0,1.441-.1s.07-.047.03.124a.5.5,0,0,1-.434.416l-.559.046-.053.329a.929.929,0,0,1,.948,1.022,1.139,1.139,0,0,1-.979,1.005,1.757,1.757,0,0,1-.953-.111s-.076-.038-.035-.1a.105.105,0,0,1,.113-.059Z" transform="translate(-233.255 -307.099)" fill="#7c001b"/>
      <path id="패스_357" data-name="패스 357" d="M250.351,316.327c.072-.086.163-.024.241,0s.075.163.116.237c.023.05.164.195.179.238a2.5,2.5,0,0,1-.237,1.612.342.342,0,0,1-.252.19c-.1.01-.132-.136-.167-.19-.151-.211-.037-.713,0-.948.039-.3-.2-.79-.046-1.01l.166-.128Z" transform="translate(-232.845 -304.792)" fill="#7c001b"/>
      <path id="패스_358" data-name="패스 358" d="M242.369,316.863c.126-.038.31.026.387,0l.172-.07a.846.846,0,0,1,.6-.071c.1.012.4.14.5.144.159.019.91.1,1.708.214-.006,0,.427-.056.317-.177.069.078-.012-.065-.174-.121l-.056-.06c.006-.006-.138-.121.12-.206a.777.777,0,0,0,.221-.1c.1-.112-.049-.23-.049-.23-.378-.127-.8.115-1.368.056a3.884,3.884,0,0,0-1.07-.119,3.722,3.722,0,0,0-1.361.552s-.143.25.06.184Z" transform="translate(-232.001 -304.774)" fill="#7c001b"/>
      <path id="패스_359" data-name="패스 359" d="M247.478,313.489c.387-.023.4.377.413.336-.045.287-.746.311-.912.534-.49.638-.287,1.247-1.445,1.313,0,0-.233-.055-.144-.15a3.567,3.567,0,0,1,.457-.215c.149-.085.137-.326.237-.476.021-.037.151-.082.184-.113.324-.44.361-.885.935-1.145a2.392,2.392,0,0,1,.274-.083Z" transform="translate(-232.334 -304.493)" fill="#7c001b"/>
      <path id="패스_360" data-name="패스 360" d="M251.786,311.561a.3.3,0,0,1,.348.078,9.7,9.7,0,0,1,.493,1.153,4.722,4.722,0,0,1,0,1.495c-.142.38-.495.675-.418,1.35a3.121,3.121,0,0,0,.384,1.053c.02.056.195.395.2.464a4.147,4.147,0,0,1-.165,1.128c-.089.733.206,1.4.088,2.1a1.123,1.123,0,0,1-.312.639l-.132.112c-.036.072-.1.1-.168.148l-.081.082c-.123.029-.136.1-.187.108-.314.07-.378-.113-.358-.071-.318-.9.214-1.943-.058-2.807-.062-.2-.3-.4-.329-.611-.109-.775.617-1.184.607-1.705,0-.371-.489-.855-.6-1.22a3.3,3.3,0,0,1-.042-1.789c.046-.131.212-.351.26-.523.089-.335.226-.611.274-.834a1.131,1.131,0,0,1,.095-.23.587.587,0,0,1,.1-.114Z" transform="translate(-232.932 -304.283)" fill="#7c001b"/>
      <path id="패스_361" data-name="패스 361" d="M261.882,309.491c.526-.061.761.146.515.592l-.1.1a1.9,1.9,0,0,0-.21.223,3.318,3.318,0,0,0-.686.538c-.066.079-.121.283-.2.351a3.671,3.671,0,0,1-.76.338,1.769,1.769,0,0,1-1.591-.9c-.08-.315,0-.62.136-.691a3.634,3.634,0,0,1,.971-.073,4.333,4.333,0,0,0,1.17-.138c.229-.073.488-.309.761-.341Z" transform="translate(-233.775 -304.063)" fill="#7c001b"/>
      <path id="패스_362" data-name="패스 362" d="M259.206,309.148a1.039,1.039,0,0,0,.562.059c.188-.046.538-.206.713-.237.107-.027.257.028.362,0,.289-.09.821-.656.184-.717a5.581,5.581,0,0,0-1.139.3,2.139,2.139,0,0,0-.529.184c-.046.028-.295.231-.265.2,0,0-.163.136.112.214Z" transform="translate(-233.8 -303.931)" fill="#7c001b"/>
      <path id="패스_363" data-name="패스 363" d="M253.806,310.183c-.188-.026-.188-.338-.655-.237-.329.069-.417.55-.895.537l-.237-.116c-.206-.049-.355.023-.537-.067-.839-.392.651-2.406,1.132-2.379a1.565,1.565,0,0,1,.3.118c.148.13.148.692.29.9.108.141.276.129.421.237a1.676,1.676,0,0,1,.473.719s.078.344-.3.293Z" transform="translate(-232.962 -303.896)" fill="#7c001b"/>
      <path id="패스_364" data-name="패스 364" d="M262.8,328.683c.01-.011.01-.012,0,0Z" transform="translate(-234.202 -306.12)" fill="#7c001b"/>
      <path id="패스_365" data-name="패스 365" d="M270.288,308.845Z" transform="translate(-235.005 -303.994)" fill="#7c001b"/>
      <path id="패스_366" data-name="패스 366" d="M262.8,328.684l0,0h0l0,0Z" transform="translate(-234.202 -306.121)" fill="#7c001b"/>
      <path id="패스_367" data-name="패스 367" d="M270.288,308.846v.012l0,0a.033.033,0,0,1,0-.013Z" transform="translate(-235.005 -303.995)" fill="#7c001b"/>
      <path id="패스_368" data-name="패스 368" d="M261.864,308.207c0-.011.009-.021.012-.03-.014.03-.018.037-.012.03Z" transform="translate(-234.102 -303.923)" fill="#7c001b"/>
      <path id="패스_369" data-name="패스 369" d="M257.8,319.606l-.011,0c.011.006.014.006.011,0Z" transform="translate(-233.665 -305.148)" fill="#7c001b"/>
      <path id="패스_370" data-name="패스 370" d="M249.286,310.62c-.324.182-1.034.462-1.181.777a3.736,3.736,0,0,0-.15.508c-.01.02-.1.055-.124.115a3.659,3.659,0,0,0-.951.059c-.235.067-.573.315-.834.361-.529.091-.933-.145-1.43-.061-.221.039-.362.269-.544.361a1.012,1.012,0,0,0-.339.184l-.11.128a2.086,2.086,0,0,1-.106.225,1.176,1.176,0,0,0-.178.5,3.288,3.288,0,0,1-.212.744c-.044.082-.267.265-.3.34-.017.051-.068.1,0,.177-.078-.084-.062.083.367.106a7.247,7.247,0,0,0,1.5-.305l.494-.266a6.178,6.178,0,0,0,.562-.465c.361-.445,1.321-2.07,2.07-1.644l.135.095a1.986,1.986,0,0,1-.181,1.354l-.168.2c-.135.044-.228.389-.247.55a2.117,2.117,0,0,0,.063.631,1.834,1.834,0,0,1-.121,1.079.594.594,0,0,0-.12.412c.036.235.367.405.415.6.029.1.114.112,0,.3a5.169,5.169,0,0,1-.415.358c-.109.109-.015.28.056.348.207.187.378.21.537.424.229.293.215.547.718.6.394.037.952.058.716-.479l-.118-.2a3.782,3.782,0,0,1-.419-1.046c-.046-.488.347-.737.181-1.131-.131-.3-.727-.269-.777-.663a4.391,4.391,0,0,1,.239-.895c.046-.286-.03-.467.063-.712.059-.177.32-.373.348-.593.056-.393-.248-.641-.115-1.073.065-.221.411-.2.539-.359.165-.221.074-.527.175-.837.011-.036.1-.221.112-.254-.009-.013.068-.4.068-.4-.05-.241-.2-.143-.22-.151m-3.774,3.146c-.334.076-.362-.636-1.167-.359a1.747,1.747,0,0,0-.286.256c-.095.212-.043.754-.15.806,0,0-.312.077-.25-.318a1.233,1.233,0,0,1,.533-1.008.828.828,0,0,1,.222-.137,1.594,1.594,0,0,1,1.2.25c.107.159-.121.512-.106.509Z" transform="translate(-232.058 -304.184)" fill="#7c001b"/>
      <path id="패스_371" data-name="패스 371" d="M266.053,308.275c-.055-.291-.847-.27-1.167-.659-.118-.155-.03-.24,0-.357.091-.339.814-.138.983-.439a.982.982,0,0,0,.048-.554c-.454-.556-1.411-.291-2.086-.56-.327-.134-.731-.4-1.073-.533-.43-.165-.762-.188-1.191-.36-.1-.041-.29-.181-.391-.223-.479-.191-.858-.231-1.335-.434-.056-.021-.2-.1-.264-.129-.191-.082-.25-.095-.454-.169a6.754,6.754,0,0,0-2.742-.435,6.263,6.263,0,0,0-1.729.144c-.249.063-.6.279-.832.353a3.6,3.6,0,0,0-.457.143,4.038,4.038,0,0,1-.675.272c-.821.184-1.913-.018-2.743.121-.72.116-1.136.571-1.729.774-.18.061-.254.042-.432.106a4.54,4.54,0,0,0-.432.146c-.247.128-.408.166-.687.283-.139.063-.305.19-.44.254a1.8,1.8,0,0,0-.378.246l-.135.1s-.291.254-.326.3c-.116.121-.228.288-.329.415a7.431,7.431,0,0,1-1.134,1.069c-.137.1-.234.079-.354.183-.142.108-.267.225-.4.328a9.225,9.225,0,0,1-.969.562l-.221.146c-.292.192-.279.269-.582.461-.2.134-.283.337-.464.492a2.447,2.447,0,0,0-.337.507,10.736,10.736,0,0,0-.782,2.036,5.049,5.049,0,0,1-.893,1.19l-.119.114a2.3,2.3,0,0,0-.178.184,3,3,0,0,0-.534.478c-.121.162-.193.354-.3.533a9.9,9.9,0,0,0-.593.9,2.883,2.883,0,0,0-.14.335.152.152,0,0,0-.025.035,2.457,2.457,0,0,0-.2.477c-.133.307-.447.479-.864,1.073a10.178,10.178,0,0,1-3.3-.931,5.776,5.776,0,0,0,3.033,1.309c-.1.146-.108.3-.288.343a6.921,6.921,0,0,1-3.04-.669,5.173,5.173,0,0,0,3.134,1.029c-.27.316-2.77.238-4.727-.3-.074.206,2.446.766,3.828.748-.238.121-.859.262-1.259.405a15.716,15.716,0,0,1-1.681-.244c.039.128.663.3,1.179.417a11.718,11.718,0,0,1-1.516.338,6.786,6.786,0,0,0,1.843-.276,13.22,13.22,0,0,0,2.477.26c-.154.078-.737.453-1.2.721-1.175.111-2.453.21-2.728.243.154.024,1.184.04,2.283.013-.671.393-1.387.8-1.73.959a11.786,11.786,0,0,0,2.348-.977,9.538,9.538,0,0,0,2.147-.237,4.7,4.7,0,0,1-1.563,1.854,2.555,2.555,0,0,0,1.845-1.779,2.072,2.072,0,0,0,.716.158,1.6,1.6,0,0,0,1.205.859c.14.4,1.417,2.481,3.211,1.67a2,2,0,0,1-1.087-1.4c.8-.052,2.9,1.1,3.536,3.6-.5-.169-1.122-.457-1.189-.706-.137.578-.227,1.322,1.051,2.609a8.881,8.881,0,0,0,.079.916,8.185,8.185,0,0,0,.679.576c.017.361-.035.861.918,1.138.323.268,1.362.554,1.514.731a3.428,3.428,0,0,0,1.105.1s.451-.077.571-.248c.226-.013.531-.021,1.912-1.49.29-.347,0-2.249.071-2.709.136-.337.2-.646.379-1.06a1.3,1.3,0,0,1,.539-.57.561.561,0,0,1,.074-.019c.795-.18,1.831.563,2.32.771.178.075.271.035.415.122.071.038.17.2.241.239.175.1.346.071.538.177.287.158.864,1,1.369.9.156-.038.28-.4.415-.484.236-.144.565-.13.776-.294.241-.19.142-.4.178-.66,0-.011.111-.131.122-.182a2.618,2.618,0,0,0,.538-.054.794.794,0,0,0,.117-.117c.1-.107.028-.221,0-.308s-.279-.209-.357-.291a3.528,3.528,0,0,1-.6-.654c-.054-.109.014-.132-.062-.245s-.288-.253-.35-.412a13.263,13.263,0,0,1-.24-1.812c-.095-.154-.212-.133-.305-.277-.2-.313.046-1.326.065-1.727.017-.322-.3-.121-.3-.121a4.925,4.925,0,0,0-.3,1.848c-.01.081-.121.573-.121.658a4.153,4.153,0,0,1,.057,1.253.719.719,0,0,1-.655.357,5.573,5.573,0,0,1-.952-.237c-.029-.014-.171-.177-.181-.181-.332-.265-.4-.017-.415.114s.045.165.072.241c.011.077.146.362.133.386s-.122.342-.741-.024a3.008,3.008,0,0,1-.954-1.195.893.893,0,0,1,.087-.627c.232-.21.509.081.742.207a1.5,1.5,0,0,0,.275.146,1.631,1.631,0,0,0,.386-.026c.9-.053,1.842.275,2-.332.1-.382-.273-.586-.34-.745a1.518,1.518,0,0,1-.09-.419c-.008-.015-.07-.154-.086-.171-.092-.16-.024-.3-.117-.475-.094-.2-.362-.312-.474-.479-.154-.221-.154-.5-.361-.657-.306-.251-1.526-.613-1.67-.9-.231-.449.055-1.278-.057-1.843a1.226,1.226,0,0,0-.371-.717.324.324,0,0,1-.087-.306c.052-.2.158-.144.217-.588.038-.244-.021-.52,0-.773,0-.041.118-.431.126-.477a5.263,5.263,0,0,0-.181-1.843c-.07-.234-.287-.437-.359-.66-.062-.187.013-.294-.062-.479-.06-.163-.267-.277-.351-.412-.162-.237-.114-.64-.362-.778-.181-.1-.246.04-.235,0a1.1,1.1,0,0,0,.059.713c.044.122.267.3.3.421.045.22-.037.487,0,.714l.113.241a2.775,2.775,0,0,1-.476,1.725c-.169.221-.682.5-.713.834-.026.207.06.213.111.3.077.11.324.253.362.357.027.078.058.062.087.139l.031.162c.04.417-.5.512-.238,1.012.074.143.33.143.473.236a1.946,1.946,0,0,1,.835,1.068,6.78,6.78,0,0,1-.054,1.256c-.124.265-.794.368-.717.895.084.574,1.6.412,2.02.712.2.142.244.447.3.723.035.146-.114.2-.179.23-.16.094-.274.021-.477.064-.492.1-1.278.32-1.483.717-.26.454.045,1.079-.064,1.6a5.035,5.035,0,0,1-.721,1.437,2.286,2.286,0,0,0-.434.79,14.36,14.36,0,0,0-.1,2.358l-.011.008a1.069,1.069,0,0,1-.257.738c-.327.36-1.462,1.421-2.265,1.421-.3-.01-.421-.107-.746-.345a1.642,1.642,0,0,1-.95-.415c-.086-.152-.975-1.053-.416-1.311.526-.242,1.376.286,1.77.539a3.116,3.116,0,0,0,2.53-1.543,13.807,13.807,0,0,0-.219-2.106c-.126-.412-.82-1.137-.969-1.572a3.764,3.764,0,0,1-.149-1.526c-.047-.534-.385-.652-.525-1.085a1.033,1.033,0,0,0-.109-.229,1.351,1.351,0,0,0-.168-.441c-.211-.323-.419-.395-.612-.711s-.166-.738-.478-.954c-.171-.115-.4-.125-.595-.237a5.071,5.071,0,0,0-.477-.358l-.431-.192c-.093-.046-.262-.121-.344-.164s-.169-.006-.239-.063c-.229-.2-.063-.371-.178-.71-.012-.043-.1-.044-.122-.121-.095-.026-.262-.178-.391-.087-.179.132-.229.094-.339.366a3.638,3.638,0,0,1-.307.837,2.21,2.21,0,0,1-.412.426.629.629,0,0,1-.3.071l-.446.064-.222.343s-.241-.032-.371-.032a2.841,2.841,0,0,1-.423.388c-.377.221-.609.064-.634-.017s-.138-.221.116-.371a4.561,4.561,0,0,0,2.036-1.67,15.625,15.625,0,0,1-2.254,1.3c.36-.852,2.576-2.1,2.71-2.248a7.531,7.531,0,0,0-2.783,1.731c-.313.508-.682.366-1.031.352s-.31.353-.325.574-.173.662-.029.74c.23.2.84-.608,1.034-.174.107.484-1.146.463-1.137.854-.06.207,1.157.279,1.381.5a3.941,3.941,0,0,1-1.633.392,2.005,2.005,0,0,1-.429-.007.918.918,0,0,1-.549-.471c-.346-.63.238-1.063.248-1.226s-.066-.078-.076-.342.286-.308.362-.364-.022-.132,0-.389c.155-.579,1.1-1.247.858-1.433-.22-.117-.679.389-.855.619a1.619,1.619,0,0,1-1.665.587c-.574.031-.474-.6-.072-.554.462-.095.428-.734.754-.67.108.468-.411.533-.168.637.329.131.362-.3.466-.483s.563-.581.512-.681c-.135-.047-.479.2-.634.317-.377-.942.574-1.658.62-1.937.313-.493,2.057-1.123,2.089-1.87l.046-.041s.035-.021.087.066h0c.012.046.021.094.033.144a.646.646,0,0,1,0,.116l.008-.071c.014.117.009.218.014.194v.113c.015.066.1.1.119.108a.409.409,0,0,0,.221-.141c.014-.014.116-.112.116-.135a.99.99,0,0,0,.316-.307c.3-.436-.279-1.076-.119-1.664a3.086,3.086,0,0,1,.475-.854c.1-.223-.057-.221-.057-.221a.371.371,0,0,0-.355.172,2.665,2.665,0,0,0-.6.783s-.18.163-.233-.061a1.735,1.735,0,0,1,.446-1.187,3.986,3.986,0,0,1,.8-.366c.155-.065.384-.312.538-.354a.283.283,0,0,1,.235,0s.117.086.063.354a1.08,1.08,0,0,0-.077.443c.025.079.013.155.2.155a5.31,5.31,0,0,0,1.665-.242c.064-.025.126-.12.184-.173.088-.091.064-.224,0-.238l-.184-.06c.14-.021-.807-.029-.655-.056-.165.028.224-.441.179-.663-.019-.106-.205-.15-.237-.234-.019-.054-.121-.132,0-.18l.136-.058a1.037,1.037,0,0,1,.162-.119,1.855,1.855,0,0,1,1.072,0,.852.852,0,0,1,.538.477,1.311,1.311,0,0,0,.119.3.728.728,0,0,0,1.012.042,1.256,1.256,0,0,0,.182-.278.982.982,0,0,0-.719-1.376c-.231-.081-.605-.105-.893-.179-.2-.057-.082-.229-.024-.279l.088-.078a1.376,1.376,0,0,1,.6-.356,1.3,1.3,0,0,1,1.072-.057c.066.022.241.16.291.173a.862.862,0,0,0,.779-.054c.126-.061.108-.078.12-.115a.428.428,0,0,0-.1-.5c-.066-.429,1.16.1,1.351-.17.179-.246.062-.713.3-.892.029-.015.167-.114.179-.118a1.051,1.051,0,0,1,.61.118l.194.093a1.769,1.769,0,0,1,.929.562c.132.207.107.507.235.719.054.088.183.147.247.238a.856.856,0,0,0,.232.148,1.034,1.034,0,0,0,.3.144c.106.042.258.2.359.243a3.019,3.019,0,0,0,1.192.118c.234-.01.372.127.593.061.115-.038.083-.239.012-.325-.141-.181-.25-.138-.487-.272-.09-.056-.206-.239-.3-.294-.27-.178-.666-.2-.829-.479a.551.551,0,0,1-.059-.174l-.067-.126c-.328-.668-.433-1.064-.118-1.19.2-.075.629-.032.84-.12.049-.025.139-.158.176-.179a2.544,2.544,0,0,1,1.85-.237c.147.07,0,.448.054.595a.491.491,0,0,0,.266.213,20.465,20.465,0,0,1,2.8.584,5.418,5.418,0,0,1,1.194.891c.347.309-.064.655.292.761-.244.032-.451.059-.492-.068a.892.892,0,0,0-.12-.176,3.069,3.069,0,0,0-.952-.773c-.192-.07-.276-.011-.479-.063l-.239-.082a5.37,5.37,0,0,0-.531-.1c-.113-.022-.369-.161-.48-.173-.505-.075-.791.128-1.254,0-.212-.062-.487-.4-.661-.492a3.185,3.185,0,0,0-.651-.24.262.262,0,0,0-.219.011c-.132.077-.087.195-.02.293.039.052.072.141.118.17.17.121.505.121.6.3.263.521-.123.7-.179.858-.028.095-.1.168,0,.294a.735.735,0,0,0,.241.176c.242.1.432.064.658.182.159.084.328.374.533.419.479.1.593-.25.835-.3.346-.075.558.106.954,0,.131-.035.2-.19.3-.234a.677.677,0,0,1,.6-.064s.153.074-.061.182c-.124.067-.228.067-.355.131a.6.6,0,0,0-.177.188.729.729,0,0,0-.067.215.335.335,0,0,0,.121.123c.415.143.839-.127,1.2-.18a2.437,2.437,0,0,1,1.213.162s.2.04.069.4c-.079.214-.42.371-.546.553-.075.1-.157.3-.236.4-.125.162-.147.158-.274.307l-.088.127c-.051.154-.658.668-.771.841-.07.1-.1.211-.173.321-.109.156-.188.181-.245.277a2.972,2.972,0,0,1-.8.89.933.933,0,0,1-.48-.04c-.12-.033-.248-.253-.353-.3-.417-.19-.881-.137-1.25-.358a2.611,2.611,0,0,1-.481-.595c-.088-.112-.167-.311-.3-.363-.214-.073-.731,0-.832.18-.2.374.316,1.338.36,1.733.03.337-.124.49,0,.77.057.145.28.181.353.3.326.508.042,1.226.12,1.905a2.6,2.6,0,0,1,.119.779c-.05.476-.662.886-.415,1.608.009.029.125.113.133.122a.536.536,0,0,0,.345,0c.2-.071.392-.468.6-.595a.225.225,0,0,1,.127-.06c.022-.04.079-.044.112-.059.088-.066.122-.068.176-.179a4.383,4.383,0,0,0,.12-.661,7.2,7.2,0,0,0,.3-.895c.073-.729-.456-2.155-.077-2.39a1.3,1.3,0,0,1,.539-.3c.112-.029.471.082.626.079l0,.005c-.195.456.521,1.649.464,2.306a5.144,5.144,0,0,1-2.091,3.344c-.1.1-.013.217.063.3.18.169.614.094.84.059a4.179,4.179,0,0,0,.714-.3c.089-.036.2.02.3,0,.246-.067.457-.4.6-.6,0,0,.29-.312.352.1l.005.023a7.053,7.053,0,0,0,0,1.189c.072.448.888,1.791,1.312,1.852.992.145-.023-1.1-.064-1.194a4.1,4.1,0,0,1-.3-1.548c.005-.182.157-.55.177-.721.011-.085-.034-.282,0-.35.079-.16.6-.212.719-.42.029-.061-.014-.169,0-.236a1.3,1.3,0,0,1,.24-.533c.07-.089.172-.14.3,0,.1.113.13.379.3.572l.146.162c.177.113.462-.038.386-.021.186-.05.163-.237.242-.3a1.088,1.088,0,0,1,.113-.056c.432-.443-.524-.844-.536-1.254a4.994,4.994,0,0,0-.056-1.489c-.038-.126-.271-.3-.3-.416a1.84,1.84,0,0,1,.119-.773c.068-.381-.062-.967.063-1.135a.385.385,0,0,1,.414-.121c.153.029.254.275.358.359a1.881,1.881,0,0,0,1.493.415c.079,0,.146-.125.16-.158a.432.432,0,0,0-.041-.376c-.235-.314-1.143-.554-1.192-.712-.036-.117-.179-.272-.021-.352a2.663,2.663,0,0,0,.794-.068c.3-.067.325-.369.535-.474.3-.156.732-.02.9-.3.1-.179.021-.436.116-.6.118-.211.471-.253.654-.42.054-.049.029-.234.017-.292m-23.959,13.939c-.116-.129-.017-.382.2-.49a.461.461,0,0,1,.648.132,8.951,8.951,0,0,0,1.258,1.687,2.716,2.716,0,0,1-2.105-1.329m3.28,6.028c-.209,0-1.537-1.118-1.336-1.812a8.574,8.574,0,0,0,1.387.895c.12.07.213.839-.051.918m1.542,0c-.173-.152-1.46-1.512-1.137-2.142a7.55,7.55,0,0,0,1.687,1.347c.1.257.084.969-.549.795m.138-5.188a1.708,1.708,0,0,1,.518,1.262c-.021.177.036.213.186.2.134-.039.06-.877.467-.822.346.051.112.53.282,1.07a4.007,4.007,0,0,1,.348,2.07c-.009.3-.591.7-.923.471-.272-.166-.272-.368-.428-1.621-.067-.738-.968-.993-1.349-1.329-.383-.281-.165-.42-.236-.933-.22-.743-1.086-1.088-.795-1.583a.317.317,0,0,1,.45-.135c.016.367.893.653,1.479,1.354m-6.142-2.342c-.023.013-.026.014.008,0l-.008,0c.088-.039.473-.22.575-.257.407-.144.624.073,1-.135a3.727,3.727,0,0,0,.268-.264c.071-.064.2-.057.284-.116.207-.139.595-.584.862-.631.152-.029.152.01.23.019,0,.014.114-.024.084.2-.071.443.966,0,1.649.157.462.112.913.268.793.566.017-.031-.135.092-.171.113-.318.232-.566-.021-.729-.044-.279-.034-.476.053-.762.016l-.343-.114a5.246,5.246,0,0,0-.692.114c-.314.024-.465-.087-.746-.056-.137.014-.359.2-.459.23s-.2.066-.288.095a2.443,2.443,0,0,0-.287.133,3.678,3.678,0,0,1-.805.231l-.2.056c-.436.058-.393-.242-.257-.318m-1.062,1.7c.47-.112.608.01.832.545a10.561,10.561,0,0,0,.65.934c-.541.061-1.4-.677-1.643-1.08-.153-.2.081-.357.161-.4m-5.972-2.238a7.789,7.789,0,0,0,1.391-.482c.083-.005.163-.005.246-.009a1.62,1.62,0,0,0,.2.495c.021.037.042.067.062.1-.373.009-1.128-.038-1.9-.1m1.287,1.081c.318-.19.621-.4.908-.608a3.7,3.7,0,0,0,.435.434,13.47,13.47,0,0,1-1.343.174Z" transform="translate(-230.769 -303.413)" fill="#7c001b"/>
      <path id="패스_372" data-name="패스 372" d="M242.129,322.793l.008,0c-.034.017-.031.015-.008,0Z" transform="translate(-231.985 -305.49)" fill="#7c001b"/>
    </g>
  </g>
</svg>
